<?xml version="1.0" encoding="utf-8"?>
<!-- Generator: Adobe Illustrator 25.2.1, SVG Export Plug-In . SVG Version: 6.00 Build 0)  -->
<svg version="1.1" id="Capa_1" xmlns="http://www.w3.org/2000/svg" xmlns:xlink="http://www.w3.org/1999/xlink" x="0px" y="0px"
	 viewBox="0 0 500 500" style="enable-background:new 0 0 500 500;" xml:space="preserve">
<style type="text/css">
	.st0{fill:#BCBCBC;}
	.st1{fill:url(#SVGID_1_);}
</style>
<g>
	<g>
		<g>
			<path d="M-195.9,109.7h0.6C-195.3,109.7-195.8,108.5-195.9,109.7z"/>
			<path d="M-340.4,109.7h0.6C-339.9,108.5-340.4,109.7-340.4,109.7z"/>
		</g>
	</g>
</g>
<g>
	<g>
		<path class="st0" d="M439.5,155.8c-3.1-5-8.1-8.5-13.8-9.8l-30.4-7l14-3.9c11.6-3.3,18.7-15.7,15.4-27.4S409,89,397.3,92.3
			l-65.5,18.3c-1.7-3.1-4.1-5.8-7.1-7.7c13.3-24.7,32.4-66.7,32.4-84.8c0-4.4-4.2-7.8-8.5-6.9c-26,5.3-50.2,7.7-74.1,7.4
			c-24.5-0.3-55-3.3-74.2-7.4c-5.9-1.3-10.7,5.4-7.6,10.6c4.7,7.8,7.5,16,9.1,24.3c-24,0.7-49-2.2-67.9-11.6
			c-5.1-2.5-11.1,1.9-10.2,7.5c5.9,35.6,17.9,56.5,29.9,72.3h-0.3c-12.2,0-22.2,10-22.2,22.2c0,11.3,8.4,20.6,19.3,22
			c-7.9,13.3-19.2,25.9-31.1,39.1C94,225.7,65.4,257.6,55.7,309c-4.6,24.6-4.5,47.6,0.5,68.4c4.6,19.4,13.3,37,26,52.3
			c16.8,20.2,39.9,35.9,68.6,46.7c25.9,9.7,55.5,14.8,85.7,14.8s59.8-5.1,85.7-14.8c28.7-10.7,51.8-26.4,68.6-46.7
			c12.7-15.2,21.4-32.8,26-52.3c4.9-20.8,5.1-43.8,0.5-68.4c-9.6-51.4-38.3-83.3-63.6-111.4c-8.6-9.5-16.8-18.6-23.6-27.9l85.4,19.6
			c9,2.1,18.7-1.9,23.7-9.7C444,172.4,444,163,439.5,155.8z M274.5,32.7c21.8,0.2,43.9-1.7,67.2-5.8c-4.3,17.5-18,48.6-31,72.2
			c-9,0.7-16.6,6.8-19.3,15h-19.7c-0.4-1-0.9-2-1.5-3.2c-6.1-12.9-18.7-39.8-18.7-62.7c0-4.4-4.2-7.8-8.5-6.9
			c-8.2,1.6-17.3,3-26.7,3.8c-1-5.9-2.5-11.8-4.8-17.7C230.5,30.5,254.5,32.5,274.5,32.7z M320.4,121.3v30.2c0,4.4-3.6,8-8,8
			s-8-3.6-8-8v-30.2c0-4.4,3.6-8,8-8C316.8,113.2,320.4,116.8,320.4,121.3z M140.5,52.3c17.7,6,39.5,8.7,63,7.9l14-0.9
			c6.6-0.6,13.3-1.5,20.1-2.6c2.2,21.9,12.2,44.4,18.3,57.4h-47.2h-14.9H172c-0.2-0.2-0.3-0.5-0.5-0.7
			C159.7,99.2,147.6,82.7,140.5,52.3z M343.4,206.9c24,26.7,51.3,57,60.2,104.5c8.2,43.7,0.3,80.4-23.4,109
			c-29.3,35.3-82.9,56.3-143.4,56.3s-114.1-21.1-143.4-56.3c-23.7-28.6-31.6-65.3-23.4-109c8.9-47.5,36.2-77.8,60.2-104.5
			c14.4-16,28-31.1,36.7-48.4h17.3c3.9,0,7.1-3.2,7.1-7.1c0-3.9-3.2-7.1-7.1-7.1h-30.5c-4.4,0-8-3.6-8-8s3.6-8,8-8h136.5v16.1H218
			c-3.9,0-7.1,3.2-7.1,7.1c0,3.9,3.2,7.1,7.1,7.1h73.4c3,8.8,11.3,15.1,21,15.1c1.1,0,2.2-0.1,3.3-0.2
			C323.6,184.9,333.2,195.6,343.4,206.9z M334.5,124.6l66.6-18.6c4.2-1.2,8.7,1.4,9.9,5.6c1.2,4.2-1.4,8.7-5.6,9.9l-38,10.5
			c-0.3,0.1-0.6,0.2-0.9,0.3l-32-7.3V124.6L334.5,124.6z M428.5,169.4c-1,4.3-5.3,7-9.6,6l-84.8-19.5c0.3-1.4,0.4-2.9,0.4-4.4v-11.9
			l87.9,20.2C426.7,160.7,429.5,165.1,428.5,169.4z"/>
	</g>
</g>
<linearGradient id="SVGID_1_" gradientUnits="userSpaceOnUse" x1="175.4" y1="185.55" x2="310.201" y2="185.55" gradientTransform="matrix(1 0 0 -1 0 502)">
	<stop  offset="0.1567" style="stop-color:#D5692D"/>
	<stop  offset="1" style="stop-color:#F0BE41"/>
</linearGradient>
<path class="st1" d="M310.2,362.2c0.1-19.5-7.6-35-23-45.9c-11.9-8.4-26.3-12.8-40.3-17c-29.1-8.8-37.5-13.5-37.5-27.4
	c0-15.5,20.1-21,37.4-21c12.5,0,27,3.9,36,9.7l17.8-27.5c-11.7-7.6-27.8-12.8-43.6-14.4V193h-32.8v27.5C195,227,176.6,246,176.6,272
	c0,18.2,7.6,32.6,22.4,42.8c11.3,7.8,25.1,11.9,38.4,16c28.5,8.6,40.1,13.9,40,31.3v0.1c0,14.6-19.3,19.8-35.9,19.8
	c-15.7,0-32.7-6.9-42.3-17.1l-23.8,22.5c12.2,12.9,30,22.1,48.8,25.7v26.8H257v-26.2C289.3,409,310.2,389.5,310.2,362.2z"/>
</svg>
