<?xml version="1.0" encoding="utf-8"?>
<!-- Generator: Adobe Illustrator 25.2.1, SVG Export Plug-In . SVG Version: 6.00 Build 0)  -->
<svg version="1.1" id="Capa_1" xmlns="http://www.w3.org/2000/svg" xmlns:xlink="http://www.w3.org/1999/xlink" x="0px" y="0px"
	 viewBox="0 0 500 500" style="enable-background:new 0 0 500 500;" xml:space="preserve">
<style type="text/css">
	.st0{fill:url(#SVGID_1_);}
	.st1{fill:url(#SVGID_2_);}
	.st2{fill:url(#SVGID_3_);}
	.st3{fill:url(#SVGID_4_);}
	.st4{fill:url(#SVGID_5_);}
	.st5{fill:url(#SVGID_6_);}
	.st6{fill:url(#SVGID_7_);}
	.st7{fill:url(#SVGID_8_);}
	.st8{fill:url(#SVGID_9_);}
	.st9{fill:url(#SVGID_10_);}
	.st10{fill:url(#SVGID_11_);}
	.st11{fill:url(#SVGID_12_);}
	.st12{fill:url(#SVGID_13_);}
	.st13{fill:#BCBCBC;}
</style>
<g>
	
		<linearGradient id="SVGID_1_" gradientUnits="userSpaceOnUse" x1="10.5284" y1="690.383" x2="32.5284" y2="690.383" gradientTransform="matrix(1 0 0 1 0 -497.333)">
		<stop  offset="0.1567" style="stop-color:#D5692D"/>
		<stop  offset="1" style="stop-color:#F0BE41"/>
	</linearGradient>
	<polygon class="st0" points="32.5,163.1 32.5,224.1 10.5,224.1 10.5,162 31.9,162 31.9,163.1 	"/>
	
		<linearGradient id="SVGID_2_" gradientUnits="userSpaceOnUse" x1="10.5284" y1="779.583" x2="32.5284" y2="779.583" gradientTransform="matrix(1 0 0 1 0 -497.333)">
		<stop  offset="0.1567" style="stop-color:#D5692D"/>
		<stop  offset="1" style="stop-color:#F0BE41"/>
	</linearGradient>
	<rect x="10.5" y="244.5" class="st1" width="22" height="75.5"/>
	
		<linearGradient id="SVGID_3_" gradientUnits="userSpaceOnUse" x1="10.5284" y1="875.483" x2="32.5284" y2="875.483" gradientTransform="matrix(1 0 0 1 0 -497.333)">
		<stop  offset="0.1567" style="stop-color:#D5692D"/>
		<stop  offset="1" style="stop-color:#F0BE41"/>
	</linearGradient>
	<rect x="10.5" y="340.4" class="st2" width="22" height="75.5"/>
	
		<linearGradient id="SVGID_4_" gradientUnits="userSpaceOnUse" x1="10.5" y1="960.383" x2="69.9" y2="960.383" gradientTransform="matrix(1 0 0 1 0 -497.333)">
		<stop  offset="0.1567" style="stop-color:#D5692D"/>
		<stop  offset="1" style="stop-color:#F0BE41"/>
	</linearGradient>
	<polygon class="st3" points="32.5,436.3 10.5,436.3 10.5,467.8 10.5,489.8 32.5,489.8 69.9,489.8 69.9,467.8 32.5,467.8 	"/>
	
		<linearGradient id="SVGID_5_" gradientUnits="userSpaceOnUse" x1="248.5" y1="976.133" x2="307.9" y2="976.133" gradientTransform="matrix(1 0 0 1 0 -497.333)">
		<stop  offset="0.1567" style="stop-color:#D5692D"/>
		<stop  offset="1" style="stop-color:#F0BE41"/>
	</linearGradient>
	<rect x="248.5" y="468.3" class="st4" width="59.4" height="21"/>
	
		<linearGradient id="SVGID_6_" gradientUnits="userSpaceOnUse" x1="169.2" y1="976.133" x2="228.6" y2="976.133" gradientTransform="matrix(1 0 0 1 0 -497.333)">
		<stop  offset="0.1567" style="stop-color:#D5692D"/>
		<stop  offset="1" style="stop-color:#F0BE41"/>
	</linearGradient>
	<rect x="169.2" y="467.8" class="st5" width="59.4" height="22"/>
	
		<linearGradient id="SVGID_7_" gradientUnits="userSpaceOnUse" x1="89.9" y1="976.133" x2="149.3" y2="976.133" gradientTransform="matrix(1 0 0 1 0 -497.333)">
		<stop  offset="0.1567" style="stop-color:#D5692D"/>
		<stop  offset="1" style="stop-color:#F0BE41"/>
	</linearGradient>
	<rect x="89.9" y="467.8" class="st6" width="59.4" height="22"/>
</g>
<g>
	
		<linearGradient id="SVGID_8_" gradientUnits="userSpaceOnUse" x1="428.9" y1="535.483" x2="489.3" y2="535.483" gradientTransform="matrix(1 0 0 1 0 -497.333)">
		<stop  offset="0" style="stop-color:#F0BE41"/>
		<stop  offset="0.8433" style="stop-color:#D5692D"/>
	</linearGradient>
	<polygon class="st7" points="488.3,10.4 467.3,10.4 428.9,10.4 428.9,32.4 467.3,32.4 467.3,65.9 489.3,65.9 489.3,10.4 	"/>
	
		<linearGradient id="SVGID_9_" gradientUnits="userSpaceOnUse" x1="467.3" y1="621.383" x2="489.3" y2="621.383" gradientTransform="matrix(1 0 0 1 0 -497.333)">
		<stop  offset="0" style="stop-color:#F0BE41"/>
		<stop  offset="0.8433" style="stop-color:#D5692D"/>
	</linearGradient>
	<rect x="467.3" y="86.3" class="st8" width="22" height="75.5"/>
	
		<linearGradient id="SVGID_10_" gradientUnits="userSpaceOnUse" x1="467.3" y1="717.283" x2="489.3" y2="717.283" gradientTransform="matrix(1 0 0 1 0 -497.333)">
		<stop  offset="0" style="stop-color:#F0BE41"/>
		<stop  offset="0.8433" style="stop-color:#D5692D"/>
	</linearGradient>
	<rect x="467.3" y="182.2" class="st9" width="22" height="75.5"/>
	
		<linearGradient id="SVGID_11_" gradientUnits="userSpaceOnUse" x1="349.5" y1="518.733" x2="408.9" y2="518.733" gradientTransform="matrix(1 0 0 1 0 -497.333)">
		<stop  offset="0" style="stop-color:#F0BE41"/>
		<stop  offset="0.8433" style="stop-color:#D5692D"/>
	</linearGradient>
	<rect x="349.5" y="10.4" class="st10" width="59.4" height="22"/>
	
		<linearGradient id="SVGID_12_" gradientUnits="userSpaceOnUse" x1="270.2" y1="518.733" x2="329.6" y2="518.733" gradientTransform="matrix(1 0 0 1 0 -497.333)">
		<stop  offset="0" style="stop-color:#F0BE41"/>
		<stop  offset="0.8433" style="stop-color:#D5692D"/>
	</linearGradient>
	<rect x="270.2" y="10.4" class="st11" width="59.4" height="22"/>
	
		<linearGradient id="SVGID_13_" gradientUnits="userSpaceOnUse" x1="190.8" y1="518.733" x2="250.2" y2="518.733" gradientTransform="matrix(1 0 0 1 0 -497.333)">
		<stop  offset="0" style="stop-color:#F0BE41"/>
		<stop  offset="0.8433" style="stop-color:#D5692D"/>
	</linearGradient>
	<polygon class="st12" points="250.2,10.4 250.2,32.4 228.3,32.4 228.3,32.2 190.8,32.2 190.8,10.4 	"/>
</g>
<g>
	<g>
		<path class="st13" d="M228.3,10.4H31.9c-12,0-21.8,9.8-21.8,21.8v130.9c0,1.5,0.1,2.9,0.4,4.2c2,10,10.8,17.6,21.4,17.6h76.4v21.8
			H86.5v21.8h87.3v-21.8H152v-21.8h76.4c12.1,0,21.8-9.8,21.8-21.8V32.2C250.1,20.2,240.3,10.4,228.3,10.4z M228.3,163.1H31.9V32.2
			h196.4L228.3,163.1L228.3,163.1z"/>
	</g>
</g>
<g>
	<g>
		<path class="st13" d="M468.3,271.6H272c-12.1,0-21.8,9.8-21.8,21.8v130.9c0,12.1,9.8,21.8,21.8,21.8h76.4v21.8h-21.8v21.8h87.3
			v-21.8h-21.8v-21.8h76.4c12.1,0,21.8-9.8,21.8-21.8V293.4C490.1,281.3,480.4,271.6,468.3,271.6z M468.3,424.3H272V293.4h196.4
			L468.3,424.3L468.3,424.3z"/>
	</g>
</g>
</svg>
