<?xml version="1.0" encoding="utf-8"?>
<!-- Generator: Adobe Illustrator 25.2.1, SVG Export Plug-In . SVG Version: 6.00 Build 0)  -->
<svg version="1.1" id="Capa_1" xmlns="http://www.w3.org/2000/svg" xmlns:xlink="http://www.w3.org/1999/xlink" x="0px" y="0px"
	 viewBox="0 0 500 500" style="enable-background:new 0 0 500 500;" xml:space="preserve">
<style type="text/css">
	.st0{fill:url(#SVGID_1_);}
	.st1{fill:#BCBCBC;}
</style>
<linearGradient id="SVGID_1_" gradientUnits="userSpaceOnUse" x1="120.5" y1="743.233" x2="489.901" y2="743.233" gradientTransform="matrix(1 0 0 1 0 -497.333)">
	<stop  offset="0.1567" style="stop-color:#D5692D"/>
	<stop  offset="1" style="stop-color:#F0BE41"/>
</linearGradient>
<path class="st0" d="M343.7,99.4c-34.3,0-67.3,12-93.7,33.8c5,4.1,9.9,8.6,14.2,13.5l9.9,9.9c19.9-15.5,44.1-23.8,69.4-23.8
	c62.4,0,113.1,50.8,113.1,113.1c0,62.4-50.8,113.1-113.1,113.1c-32.1,0-62.9-13.8-84.3-37.7l0,0l-70.6-70.5l-2.7-2.7
	c0.8-2.7,1.2-5.6,1.2-8.6c0-18.5-14.9-33.3-33.3-33.3c-18.3,0-33.3,14.9-33.3,33.3c0,18.3,15,33.3,33.3,33.3c3,0,5.9-0.5,8.6-1.1
	l55.3,55.3l8.2,8.2l9.9,9.9l0,0c4.5,4.9,9.2,9.4,14.2,13.5c26.1,21.7,59.3,33.8,93.5,33.8c80.8,0,146.4-65.8,146.4-146.4
	C490.2,165,424.5,99.4,343.7,99.4z"/>
<path class="st1" d="M376.9,273.7l-8.3-44.1c-0.3-2-1.2-3.6-2.1-4.7c-2-2-4.7-1.7-7.4,1.1l-7.9,7.9l-69-69l-8.2-8.2l-9.9-9.9
	c-4.5-4.9-9.2-9.4-14.2-13.5c-26.1-21.7-59.3-33.8-93.5-33.8C75.6,99.5,10,165.3,10,245.9c0,80.8,65.6,146.4,146.4,146.4
	c34.3,0,67.3-12,93.7-33.8c-5-4.1-9.9-8.6-14.2-13.5l0,0l-9.9-9.9c-19.9,15.5-44.1,23.8-69.4,23.8c-62.4,0-113.1-50.8-113.1-113.1
	c0-62.4,50.8-113.1,113.1-113.1c32.1,0,62.9,13.8,84.3,37.7l0,0l70.6,70.3l16.2,16.2l-7.3,7.4c-2.6,2.6-3,5.5-1.1,7.4
	c1.1,1.1,2.7,1.8,4.7,2.1l44.1,8.3c2.9,0.5,5.3-0.2,7-1.8C376.8,279,377.5,276.4,376.9,273.7z"/>
</svg>
