<?xml version="1.0" encoding="utf-8"?>
<!-- Generator: Adobe Illustrator 25.2.1, SVG Export Plug-In . SVG Version: 6.00 Build 0)  -->
<svg version="1.1" id="Capa_1" xmlns="http://www.w3.org/2000/svg" xmlns:xlink="http://www.w3.org/1999/xlink" x="0px" y="0px"
	 viewBox="0 0 500 500" style="enable-background:new 0 0 500 500;" xml:space="preserve">
<style type="text/css">
	.st0{fill:#BCBCBC;}
	.st1{fill:url(#SVGID_1_);}
</style>
<g>
	<path class="st0" d="M455.2,366.8c-12.8-17.3-35.8-42.2-35.8-42.2s-23.1,24.9-35.8,42.2c-18.5,25.1-27.6,44.4-27.6,59
		c0,35,28.4,63.4,63.4,63.4s63.4-28.4,63.4-63.4C482.8,411.2,473.8,391.9,455.2,366.8z M424.5,452.3v9.5h-11.9v-9.7
		c-6.8-1.3-13.2-4.6-17.7-9.3l8.6-8.1c3.5,3.7,9.6,6.2,15.3,6.2c6,0,13-1.9,13-7.2l0,0c0-6.3-4.1-8.2-14.5-11.3
		c-4.8-1.5-9.8-3-13.9-5.8c-5.4-3.7-8.1-8.9-8.1-15.5c0-9.4,6.6-16.3,17.2-18.6v-10h11.9v9.3c5.7,0.6,11.5,2.5,15.8,5.2l-6.4,10
		c-3.2-2.1-8.5-3.5-13-3.5c-6.2,0-13.5,2-13.5,7.6c0,5,3,6.7,13.6,9.9c5,1.5,10.3,3.1,14.6,6.2c5.6,3.9,8.4,9.5,8.3,16.6
		C443.8,443.6,436.2,450.6,424.5,452.3z"/>
	<g>
		
			<linearGradient id="SVGID_1_" gradientUnits="userSpaceOnUse" x1="111.7" y1="338.95" x2="470.4" y2="338.95" gradientTransform="matrix(1 0 0 -1 0 502)">
			<stop  offset="0.1567" style="stop-color:#D5692D"/>
			<stop  offset="1" style="stop-color:#F0BE41"/>
		</linearGradient>
		<path class="st1" d="M332.1,162.6l-5.2,0.1c-6.7,0.1-12.9-2.5-17.6-7.1c-4.7-4.7-7.3-10.9-7.3-17.6V86.5h-46V55.8h76.6V25.2H256
			V9.9h-30.6v15.3h-76.6v30.6h76.6v30.6h-46v47.7c0,16-13,28.9-28.9,28.9h-38.8c0.8,4.5,1.3,9.1,1.3,13.9v79.5
			c0,4.7-0.5,9.4-1.3,13.9h220.9c16.9,0,30.6,13.7,30.6,30.6v15.3h107.2v-15.3C470.4,224.6,408.4,162.6,332.1,162.6L332.1,162.6z"/>
		<path class="st0" d="M37.8,132.4h-27v168.5h27c24.6,0,44.5-20,44.5-44.5v-79.5C82.4,152.4,62.4,132.4,37.8,132.4z"/>
	</g>
</g>
</svg>
