<?xml version="1.0" encoding="utf-8"?>
<!-- Generator: Adobe Illustrator 25.2.1, SVG Export Plug-In . SVG Version: 6.00 Build 0)  -->
<svg version="1.1" id="Capa_1" xmlns="http://www.w3.org/2000/svg" xmlns:xlink="http://www.w3.org/1999/xlink" x="0px" y="0px"
	 viewBox="0 0 500 500" style="enable-background:new 0 0 500 500;" xml:space="preserve">
<style type="text/css">
	.st0{fill:url(#SVGID_1_);}
	.st1{fill:#BCBCBC;}
</style>
<g>
	
		<linearGradient id="SVGID_1_" gradientUnits="userSpaceOnUse" x1="12.3" y1="250.9489" x2="379.4" y2="250.9489" gradientTransform="matrix(1 0 0 -1 0 502)">
		<stop  offset="0.1567" style="stop-color:#D5692D"/>
		<stop  offset="1" style="stop-color:#F0BE41"/>
	</linearGradient>
	<path class="st0" d="M308.7,378.2c-7.6,0-15,1.2-22.1,3.5c-6.4-14.8-16.3-28.1-29-38.3c-13.8-11.1-30.4-18.2-47.8-20.7V208.2
		c20-1.3,55.9-7.3,80.6-32.1c35.2-35.2,32.5-92.9,32.3-95.4c-0.4-7.2-6.1-12.9-13.3-13.3c-2.4-0.1-60.2-2.9-95.4,32.3
		c-3.7,3.7-7.1,7.7-10,11.9c-5.2-20.7-14.9-43.9-33-62C129.1,7.7,59.9,11,57,11.1c-7.2,0.4-12.9,6.1-13.3,13.3
		c-0.2,2.9-3.5,72.1,38.6,114.2c30.8,30.8,76.2,37.3,99.4,38.5v145.7c-17.4,2.5-34,9.6-47.8,20.7c-12.7,10.2-22.7,23.4-29,38.3
		c-7.1-2.3-14.5-3.5-22.1-3.5c-38.9,0-70.5,31.6-70.5,70.5V477c0,7.8,6.3,14.1,14.1,14.1h338.9c7.8,0,14.1-6.3,14.1-14.1v-28.2
		C379.3,409.8,347.6,378.2,308.7,378.2L308.7,378.2z M351.1,462.9H40.4v-14.2c0-23.4,19-42.4,42.4-42.4c8.1,0,16,2.3,22.9,6.7
		c3.8,2.5,8.7,2.9,12.9,1.2c4.2-1.7,7.4-5.4,8.4-9.8c7.5-32.1,35.8-54.5,68.8-54.5s61.3,22.4,68.8,54.5c1,4.5,4.2,8.1,8.4,9.8
		s9,1.3,12.9-1.2c6.8-4.4,14.7-6.7,22.9-6.7c23.4,0,42.4,19,42.4,42.4L351.1,462.9z M151.3,69.6c23.4,23.4,28.9,59.7,30.1,79.3
		c-19.5-1.2-55.7-6.7-79.2-30.2C78.8,95.3,73.3,59,72,39.4C91.5,40.6,127.8,46.1,151.3,69.6z M234,119.7
		c17.4-17.4,44.1-22.3,60.2-23.7c-1.4,16.1-6.4,42.9-23.6,60.2c-17.4,17.4-44.1,22.3-60.2,23.7C211.7,163.8,216.7,137,234,119.7z"/>
</g>
<g>
	<g>
		<path class="st1" d="M399.4,150.9c-48.4,0-87.6,17.8-87.6,39.7v8.6c0,21.9,39.2,39.7,87.6,39.7s87.6-17.8,87.6-39.7v-8.6
			C487,168.7,447.8,150.9,399.4,150.9z"/>
		<path class="st1" d="M399.4,258.4c-42.2,0-77.4-13.5-85.7-31.6c-1.2,2.6-1.8,5.3-1.8,8.1v8.6c0,21.9,39.2,39.7,87.6,39.7
			s87.6-17.8,87.6-39.7V235c0-2.8-0.6-5.5-1.8-8.1C476.9,244.9,441.6,258.4,399.4,258.4z"/>
		<path class="st1" d="M399.4,302.8c-42.2,0-77.4-13.5-85.7-31.6c-1.2,2.6-1.8,5.3-1.8,8.1v8.6c0,21.9,39.2,39.7,87.6,39.7
			s87.6-17.8,87.6-39.7v-8.6c0-2.8-0.6-5.5-1.8-8.1C476.9,289.2,441.6,302.8,399.4,302.8z"/>
		<path class="st1" d="M399.4,349.5c-42.2,0-77.4-13.5-85.7-31.6c-1.2,2.6-1.8,5.3-1.8,8.1v8.6c0,21.9,39.2,39.7,87.6,39.7
			s87.6-17.8,87.6-39.7V326c0-2.8-0.6-5.5-1.8-8.1C476.9,335.9,441.6,349.5,399.4,349.5z"/>
	</g>
</g>
</svg>
