<?xml version="1.0" encoding="utf-8"?>
<!-- Generator: Adobe Illustrator 25.2.1, SVG Export Plug-In . SVG Version: 6.00 Build 0)  -->
<svg version="1.1" id="Capa_1" xmlns="http://www.w3.org/2000/svg" xmlns:xlink="http://www.w3.org/1999/xlink" x="0px" y="0px"
	 viewBox="0 0 500 500" style="enable-background:new 0 0 500 500;" xml:space="preserve">
<style type="text/css">
	.st0{fill:url(#SVGID_1_);}
	.st1{fill:#BCBCBC;}
	.st2{fill:url(#SVGID_2_);}
</style>
<g>
	<g>
		
			<linearGradient id="SVGID_1_" gradientUnits="userSpaceOnUse" x1="10.1" y1="252" x2="490.1" y2="252" gradientTransform="matrix(1 0 0 -1 0 502)">
			<stop  offset="0.1567" style="stop-color:#D5692D"/>
			<stop  offset="1" style="stop-color:#F0BE41"/>
		</linearGradient>
		<path class="st0" d="M250.1,40c28.4,0,55.9,5.5,81.7,16.5c25,10.6,47.5,25.7,66.8,45s34.4,41.8,45,66.8
			c10.9,25.9,16.5,53.4,16.5,81.7s-5.5,55.9-16.5,81.7c-10.6,25-25.7,47.5-45,66.8s-41.8,34.4-66.8,45c-25.8,11-53.3,16.5-81.7,16.5
			s-55.9-5.5-81.7-16.5c-25-10.6-47.5-25.7-66.8-45s-34.4-41.8-45-66.8c-10.9-25.9-16.5-53.4-16.5-81.7s5.5-55.9,16.5-81.7
			c10.6-25,25.7-47.5,45-66.8s41.8-34.4,66.8-45C194.2,45.5,221.7,40,250.1,40 M250.1,10c-132.5,0-240,107.5-240,240
			s107.5,240,240,240s240-107.5,240-240S382.6,10,250.1,10L250.1,10z"/>
	</g>
	<g>
		<path class="st1" d="M250.1,147c56.8,0,103,46.2,103,103s-46.2,103-103,103s-103-46.2-103-103S193.3,147,250.1,147 M250.1,117
			c-73.5,0-133,59.5-133,133s59.5,133,133,133s133-59.5,133-133S323.6,117,250.1,117L250.1,117z"/>
	</g>
	<g>
		
			<linearGradient id="SVGID_2_" gradientUnits="userSpaceOnUse" x1="225.1" y1="252" x2="275.1" y2="252" gradientTransform="matrix(1 0 0 -1 0 502)">
			<stop  offset="0.1567" style="stop-color:#D5692D"/>
			<stop  offset="1" style="stop-color:#F0BE41"/>
		</linearGradient>
		<circle class="st2" cx="250.1" cy="250" r="25"/>
	</g>
</g>
</svg>
