<?xml version="1.0" encoding="utf-8"?>
<!-- Generator: Adobe Illustrator 25.2.1, SVG Export Plug-In . SVG Version: 6.00 Build 0)  -->
<svg version="1.1" id="Capa_1" xmlns="http://www.w3.org/2000/svg" xmlns:xlink="http://www.w3.org/1999/xlink" x="0px" y="0px"
	 viewBox="0 0 500 500" style="enable-background:new 0 0 500 500;" xml:space="preserve">
<style type="text/css">
	.st0{fill:url(#SVGID_1_);}
	.st1{fill:#BCBCBC;}
</style>
<linearGradient id="SVGID_1_" gradientUnits="userSpaceOnUse" x1="24" y1="251.9375" x2="476.2" y2="251.9375" gradientTransform="matrix(1 0 0 -1 0 502)">
	<stop  offset="0.1567" style="stop-color:#D5692D"/>
	<stop  offset="1" style="stop-color:#F0BE41"/>
</linearGradient>
<path class="st0" d="M476.2,127.2c0-21.7-17.7-39.4-39.4-39.4c-11.1,0-21.2,4.7-28.4,12.1L254.8,11.3c-2.9-1.7-6.5-1.7-9.4,0
	L91.8,100c-7.2-7.5-17.2-12.1-28.4-12.1c-21.7,0-39.4,17.7-39.4,39.4c0,18.5,12.8,34,30,38.2v177.4c0,3.3,1.8,6.4,4.7,8.1
	l153.6,88.7c-1,3.5-1.6,7.2-1.6,11c0,21.7,17.7,39.4,39.4,39.4s39.4-17.7,39.4-39.4c0-3.8-0.6-7.5-1.6-11L441.5,351
	c2.9-1.7,4.7-4.8,4.7-8.1V165.4C463.4,161.2,476.2,145.7,476.2,127.2z M42.8,127.2c0-11.4,9.3-20.6,20.6-20.6
	c11.4,0,20.6,9.3,20.6,20.6c0,11.4-9.3,20.6-20.6,20.6C52,147.8,42.8,138.6,42.8,127.2z M250.1,471.2c-11.4,0-20.6-9.3-20.6-20.6
	c0-11.4,9.3-20.6,20.6-20.6c11.4,0,20.6,9.3,20.6,20.6C270.7,462,261.5,471.2,250.1,471.2z M278.5,423.4
	c-7.2-7.5-17.3-12.2-28.4-12.2c-11.2,0-21.2,4.7-28.4,12.1l-148.9-86v-172c17.2-4.2,30-19.8,30-38.2c0-3.8-0.6-7.5-1.6-11l148.9-86
	l148.9,86c-1,3.5-1.6,7.2-1.6,11c0,18.5,12.8,34,30,38.2v172L278.5,423.4z M436.8,147.8c-11.4,0-20.6-9.3-20.6-20.6
	c0-11.4,9.3-20.6,20.6-20.6c11.4,0,20.6,9.3,20.6,20.6C457.5,138.6,448.2,147.8,436.8,147.8z"/>
<path class="st1" d="M378.5,155.4L254.8,84c-2.9-1.7-6.5-1.7-9.4,0l-123.8,71.4c-2.9,1.7-4.7,4.8-4.7,8.1v142.9
	c0,3.3,1.8,6.4,4.7,8.1L245.4,386c1.5,0.8,3.1,1.3,4.7,1.3c1.6,0,3.2-0.4,4.7-1.3l123.8-71.4c2.9-1.7,4.7-4.8,4.7-8.1V163.6
	C383.2,160.2,381.4,157.1,378.5,155.4z M250.1,102.9l105,60.6l-105,60.6l-105-60.6L250.1,102.9z M250.1,367l-114.4-66V179.8
	l109.7,63.3c1.5,0.8,3.1,1.3,4.7,1.3c1.6,0,3.2-0.4,4.7-1.3l109.7-63.3V301L250.1,367z"/>
</svg>
