<?xml version="1.0" encoding="utf-8"?>
<!-- Generator: Adobe Illustrator 24.3.0, SVG Export Plug-In . SVG Version: 6.00 Build 0)  -->
<svg version="1.1" id="Layer_1" xmlns="http://www.w3.org/2000/svg" xmlns:xlink="http://www.w3.org/1999/xlink" x="0px" y="0px"
	 viewBox="0 0 358.5 345.2" style="enable-background:new 0 0 358.5 345.2;" xml:space="preserve">
<style type="text/css">
	.st0{opacity:0.1;fill:#D6D6D6;enable-background:new    ;}
	.st1{opacity:0.1;}
	.st2{opacity:0.43;}
	.st3{fill:#4C7693;}
	.st4{fill:#723E24;}
	.st5{opacity:0.37;enable-background:new    ;}
	.st6{opacity:0.37;}
	.st7{fill:#E8F6F7;}
	.st8{fill:#D0E0E2;}
	.st9{fill:#0A1828;}
	.st10{fill:#132333;}
	.st11{fill:#FFADAD;}
	.st12{fill:#254A68;}
	.st13{fill:#A67070;}
	.st14{opacity:0.38;fill:#916262;enable-background:new    ;}
	.st15{fill:#5B2F2F;}
	.st16{fill:#F29E9E;}
	.st17{fill:#E5BB98;}
	.st18{fill:#E6E7E8;}
	.st19{opacity:0.2;enable-background:new    ;}
	.st20{fill:#FFE7DB;}
	.st21{fill:url(#SVGID_1_);}
	.st22{fill:#9A9FB3;}
	.st23{fill:url(#SVGID_2_);}
	.st24{opacity:0.2;fill:#212226;enable-background:new    ;}
	.st25{fill:#77AFFD;}
	.st26{fill:none;stroke:#77AFFD;stroke-width:0.5;stroke-linecap:round;stroke-linejoin:round;}
	.st27{fill:none;stroke:#77AFFD;stroke-width:0.5;stroke-linecap:round;stroke-linejoin:round;stroke-dasharray:1.59,1;}
	.st28{fill:none;stroke:#77AFFD;stroke-width:0.5;stroke-linecap:round;stroke-linejoin:round;stroke-dasharray:1.6,1;}
	.st29{fill:#FFFFFF;}
	.st30{opacity:0.55;fill:#184C82;enable-background:new    ;}
	.st31{opacity:0.31;fill:#184C82;enable-background:new    ;}
	.st32{opacity:0.12;fill:#184C82;enable-background:new    ;}
	.st33{opacity:0.55;}
	.st34{fill:#6D26D7;}
	.st35{fill:#FF8200;}
	.st36{opacity:0.2;fill:none;stroke:#212226;stroke-width:0.5;stroke-miterlimit:10;enable-background:new    ;}
</style>
<g>
	<g id="Layer_2_1_">
		<g id="OBJECTS">
			<path class="st0" d="M40.5,285.2c46.4,54.5,104.9,67.8,174.6,56s148.6-45.8,143.3-133.1s-91.6-96.1-142.8-162.4
				c-30.9-40-109.3-46.3-161.9,4.7C15.2,87.8-38,193.1,40.5,285.2z"/>
			<path class="st0" d="M37.1,240.1c35.6,49.1,84.2,64.2,143.9,58.8s128.6-29,129.9-103.1s-71.1-87.3-110-146.7
				c-23.5-35.9-89.4-46.3-137.2-6.7C28.8,71.5-23.1,157,37.1,240.1z"/>
			<path d="M194.6,3.2c58.2,19.6,53.9,84.4,88.1,136.3s34,100.8,9.5,135.5s-93.5,56.3-164.1,22.6c-35.8-17.1-85.6-45-90.8-124.8
				C31.5,83.9,126.6-19.7,194.6,3.2z"/>
			<ellipse class="st1" cx="167.1" cy="264.6" rx="97.6" ry="14.5"/>
			<g class="st2">
				<path class="st3" d="M225.9,53.1c0,0.6-0.5,1-1,0.9s-1-0.5-0.9-1c0-0.5,0.5-0.9,1-1C225.5,52,225.9,52.5,225.9,53.1
					C225.9,53.1,225.9,53.1,225.9,53.1z"/>
				<path class="st3" d="M230.3,53.1c0,0.6-0.5,1-1,0.9s-1-0.5-0.9-1c0-0.5,0.5-0.9,1-1C229.9,52,230.3,52.5,230.3,53.1
					C230.3,53.1,230.3,53.1,230.3,53.1z"/>
				<path class="st3" d="M234.7,53.1c0,0.6-0.5,1-1,0.9s-1-0.5-0.9-1c0-0.5,0.5-0.9,1-1C234.3,52,234.7,52.5,234.7,53.1
					C234.7,53.1,234.7,53.1,234.7,53.1z"/>
				<path class="st3" d="M239.1,53.1c-0.1,0.5-0.5,1-1.1,0.9c-0.5-0.1-1-0.5-0.9-1.1c0-0.5,0.4-0.9,0.9-0.9c0.6,0,1,0.4,1.1,0.9
					C239.1,53,239.1,53,239.1,53.1z"/>
				<circle class="st3" cx="242.4" cy="53.1" r="1"/>
				<path class="st3" d="M247.9,53.1c0,0.6-0.5,1-1,0.9s-1-0.5-0.9-1c0-0.5,0.5-0.9,1-1C247.4,52,247.9,52.5,247.9,53.1
					C247.9,53.1,247.9,53.1,247.9,53.1z"/>
				<path class="st3" d="M252.2,53.1c0,0.6-0.5,1-1,0.9s-1-0.5-0.9-1c0-0.5,0.5-0.9,1-1C251.8,52,252.3,52.5,252.2,53.1
					C252.3,53.1,252.3,53.1,252.2,53.1z"/>
				<path class="st3" d="M256.6,53.1c0,0.6-0.5,1-1,0.9s-1-0.5-0.9-1c0-0.5,0.5-0.9,1-1C256.2,52,256.6,52.5,256.6,53.1
					C256.6,53.1,256.6,53.1,256.6,53.1z"/>
				<path class="st3" d="M170,75c0,0.6-0.5,1-1,0.9s-1-0.5-0.9-1c0-0.5,0.5-0.9,1-0.9C169.6,73.9,170,74.4,170,75
					C170,75,170,75,170,75z"/>
				<path class="st3" d="M174.4,75c0,0.6-0.5,1-1,0.9s-1-0.5-0.9-1c0-0.5,0.5-0.9,1-0.9C173.9,73.9,174.4,74.4,174.4,75
					C174.4,75,174.4,75,174.4,75z"/>
				<path class="st3" d="M178.8,75c0,0.6-0.5,1-1,0.9s-1-0.5-0.9-1c0-0.5,0.5-0.9,1-0.9C178.3,73.9,178.8,74.4,178.8,75
					C178.8,75,178.8,75,178.8,75z"/>
				<path class="st3" d="M183.1,75c0,0.6-0.5,1-1,0.9s-1-0.5-0.9-1c0-0.5,0.5-0.9,1-0.9C182.7,73.9,183.1,74.4,183.1,75
					C183.1,75,183.1,75,183.1,75z"/>
				<path class="st3" d="M187.5,75c0,0.6-0.5,1-1,0.9s-1-0.5-0.9-1c0-0.5,0.5-0.9,1-0.9C187.1,73.9,187.5,74.4,187.5,75
					C187.5,75,187.5,75,187.5,75z"/>
				<path class="st3" d="M191.9,75c0,0.6-0.5,1-1,0.9s-1-0.5-0.9-1c0-0.5,0.5-0.9,1-0.9C191.5,73.9,191.9,74.4,191.9,75
					C191.9,75,191.9,75,191.9,75z"/>
				<path class="st3" d="M196.3,75c0,0.6-0.5,1-1,0.9s-1-0.5-0.9-1c0-0.5,0.5-0.9,1-0.9C195.9,73.9,196.3,74.4,196.3,75
					C196.3,75,196.3,75,196.3,75z"/>
				<path class="st3" d="M200.7,75c0,0.6-0.5,1-1,0.9s-1-0.5-0.9-1c0-0.5,0.5-0.9,1-0.9C200.2,73.9,200.7,74.4,200.7,75
					C200.7,75,200.7,75,200.7,75z"/>
				<path class="st3" d="M179.9,81.2c0,0.6-0.4,1-1,1s-1-0.4-1-1s0.4-1,1-1S179.9,80.7,179.9,81.2z"/>
				<path class="st3" d="M184.3,81.2c0,0.6-0.4,1-1,1s-1-0.4-1-1s0.4-1,1-1S184.3,80.7,184.3,81.2z"/>
				<path class="st3" d="M188.7,81.2c0,0.6-0.4,1-1,1c-0.6,0-1-0.4-1-1c0-0.5,0.4-1,0.9-1C188.2,80.2,188.7,80.6,188.7,81.2
					C188.7,81.2,188.7,81.2,188.7,81.2z"/>
				<path class="st3" d="M193.1,81.2c0,0.6-0.5,1-1,1c-0.6,0-1-0.5-1-1s0.5-1,1-1C192.6,80.2,193.1,80.6,193.1,81.2z"/>
				<path class="st3" d="M197.4,81.2c0,0.6-0.4,1-1,1s-1-0.4-1-1s0.4-1,1-1S197.4,80.7,197.4,81.2z"/>
				<path class="st3" d="M201.8,81.2c0,0.6-0.4,1-1,1s-1-0.4-1-1s0.4-1,1-1S201.8,80.7,201.8,81.2z"/>
				<path class="st3" d="M206.2,81.2c0,0.6-0.4,1-1,1s-1-0.4-1-1s0.4-1,1-1S206.2,80.7,206.2,81.2z"/>
				<path class="st3" d="M210.6,81.2c0,0.6-0.4,1-1,1s-1-0.4-1-1s0.4-1,1-1S210.6,80.7,210.6,81.2z"/>
				<path class="st3" d="M166.6,205.2c0,0.6-0.4,1-1,1s-1-0.4-1-1s0.4-1,1-1S166.6,204.7,166.6,205.2z"/>
				<path class="st3" d="M171,205.2c0,0.6-0.4,1-1,1c-0.6,0-1-0.4-1-1c0-0.5,0.4-1,0.9-1C170.5,204.2,171,204.6,171,205.2
					C171,205.2,171,205.2,171,205.2z"/>
				<path class="st3" d="M175.4,205.2c0,0.6-0.4,1-1,1s-1-0.4-1-1s0.4-1,1-1S175.4,204.7,175.4,205.2z"/>
				<path class="st3" d="M179.8,205.2c0,0.6-0.4,1-1,1s-1-0.4-1-1s0.4-1,1-1S179.8,204.7,179.8,205.2z"/>
				<path class="st3" d="M184.2,205.2c0,0.6-0.5,1-1,1c-0.6,0-1-0.5-1-1s0.5-1,1-1C183.7,204.2,184.2,204.6,184.2,205.2z"/>
				<path class="st3" d="M188.6,205.2c0,0.6-0.4,1-1,1s-1-0.4-1-1s0.4-1,1-1S188.6,204.7,188.6,205.2z"/>
				<path class="st3" d="M193,205.2c0,0.6-0.4,1-1,1c-0.6,0-1-0.4-1-1c0-0.5,0.4-1,0.9-1C192.5,204.2,193,204.6,193,205.2
					C193,205.2,193,205.2,193,205.2z"/>
				<path class="st3" d="M197.4,205.2c0,0.6-0.4,1-1,1s-1-0.4-1-1s0.4-1,1-1S197.4,204.7,197.4,205.2z"/>
				<path class="st3" d="M182.1,212.5c0,0.6-0.4,1-1,1s-1-0.4-1-1s0.4-1,1-1S182.1,211.9,182.1,212.5z"/>
				<path class="st3" d="M186.5,212.5c0,0.6-0.4,1-1,1c-0.6,0-1-0.4-1-1c0-0.5,0.4-1,0.9-1C186,211.4,186.5,211.9,186.5,212.5
					C186.5,212.4,186.5,212.4,186.5,212.5z"/>
				<path class="st3" d="M190.9,212.5c0,0.6-0.4,1-1,1s-1-0.4-1-1s0.4-1,1-1S190.9,211.9,190.9,212.5z"/>
				<path class="st3" d="M195.3,212.5c0,0.6-0.5,1-1,1c-0.6,0-1-0.5-1-1s0.5-1,1-1C194.8,211.4,195.3,211.9,195.3,212.5z"/>
				<path class="st3" d="M199.7,212.5c0,0.6-0.5,1-1,1c-0.6,0-1-0.5-1-1s0.5-1,1-1C199.2,211.4,199.7,211.9,199.7,212.5z"/>
				<path class="st3" d="M204.1,212.5c0,0.6-0.4,1-1,1s-1-0.4-1-1s0.4-1,1-1S204.1,211.9,204.1,212.5z"/>
				<path class="st3" d="M208.4,212.5c0,0.6-0.4,1-1,1c-0.6,0-1-0.4-1-1c0-0.5,0.4-1,0.9-1C207.9,211.4,208.4,211.9,208.4,212.5
					C208.4,212.4,208.4,212.4,208.4,212.5z"/>
				<path class="st3" d="M212.8,212.5c0,0.6-0.4,1-1,1s-1-0.4-1-1s0.4-1,1-1S212.8,211.9,212.8,212.5z"/>
				<path class="st3" d="M42,116.1c0,0.6-0.5,1-1,1s-1-0.5-1-1s0.5-1,1-1S42,115.6,42,116.1z"/>
				<path class="st3" d="M46.4,116.1c0,0.6-0.4,1-1,1s-1-0.4-1-1s0.4-1,1-1S46.4,115.6,46.4,116.1z"/>
				<path class="st3" d="M50.8,116.1c0,0.6-0.4,1-1,1c-0.6,0-1-0.4-1-1c0-0.5,0.4-1,1-1C50.3,115.1,50.8,115.5,50.8,116.1
					C50.8,116.1,50.8,116.1,50.8,116.1z"/>
				<path class="st3" d="M55.2,116.1c0,0.6-0.4,1-1,1s-1-0.4-1-1s0.4-1,1-1S55.2,115.6,55.2,116.1z"/>
				<path class="st3" d="M59.5,116.1c0,0.6-0.4,1-1,1s-1-0.4-1-1s0.4-1,1-1S59.5,115.6,59.5,116.1z"/>
				<path class="st3" d="M63.9,116.1c0,0.6-0.5,1-1,1c-0.6,0-1-0.5-1-1s0.5-1,1-1S63.9,115.6,63.9,116.1z"/>
				<path class="st3" d="M68.3,116.1c0,0.6-0.4,1-1,1s-1-0.4-1-1s0.4-1,1-1S68.3,115.6,68.3,116.1z"/>
				<path class="st3" d="M72.7,116.1c0,0.6-0.4,1-1,1s-1-0.4-1-1s0.4-1,1-1S72.7,115.6,72.7,116.1z"/>
				<path class="st3" d="M69.4,150.3c0,0.6-0.4,1-1,1s-1-0.4-1-1s0.4-1,1-1S69.4,149.8,69.4,150.3z"/>
				<path class="st3" d="M73.8,150.3c0,0.6-0.4,1-1,1s-1-0.4-1-1s0.4-1,1-1S73.8,149.8,73.8,150.3z"/>
				<path class="st3" d="M78.2,150.3c0,0.6-0.4,1-1,1s-1-0.4-1-1s0.4-1,1-1S78.2,149.8,78.2,150.3z"/>
				<path class="st3" d="M82.6,150.3c0,0.6-0.4,1-1,1s-1-0.4-1-1s0.4-1,1-1S82.6,149.8,82.6,150.3z"/>
				<path class="st3" d="M87,150.3c0,0.6-0.4,1-1,1s-1-0.4-1-1s0.4-1,1-1S87,149.8,87,150.3z"/>
				<path class="st3" d="M91.3,150.3c0,0.6-0.4,1-1,1s-1-0.4-1-1s0.4-1,1-1S91.3,149.8,91.3,150.3z"/>
				<path class="st3" d="M95.7,150.3c0,0.6-0.4,1-1,1s-1-0.4-1-1s0.4-1,1-1S95.7,149.8,95.7,150.3z"/>
				<path class="st3" d="M100.1,150.3c0,0.6-0.4,1-1,1s-1-0.4-1-1s0.4-1,1-1S100.1,149.8,100.1,150.3z"/>
				<path class="st3" d="M204.8,154c0,0.6-0.4,1-1,1s-1-0.4-1-1s0.4-1,1-1S204.8,153.4,204.8,154z"/>
				<path class="st3" d="M209.2,154c0,0.6-0.4,1-1,1s-1-0.4-1-1s0.4-1,1-1S209.2,153.4,209.2,154z"/>
				<path class="st3" d="M213.6,154c0,0.6-0.4,1-1,1s-1-0.4-1-1s0.4-1,1-1S213.6,153.4,213.6,154z"/>
				<path class="st3" d="M218,154c0,0.6-0.5,1-1,1c-0.6,0-1-0.5-1-1s0.5-1,1-1C217.5,153,218,153.4,218,154z"/>
				<path class="st3" d="M222.4,154c0,0.6-0.4,1-1,1s-1-0.4-1-1s0.4-1,1-1S222.4,153.4,222.4,154z"/>
				<path class="st3" d="M226.8,154c0,0.6-0.4,1-1,1s-1-0.4-1-1s0.4-1,1-1S226.8,153.4,226.8,154z"/>
				<path class="st3" d="M231.1,154c0,0.6-0.4,1-1,1s-1-0.4-1-1s0.4-1,1-1S231.1,153.4,231.1,154z"/>
				<path class="st3" d="M235.5,154c0,0.6-0.4,1-1,1s-1-0.4-1-1s0.4-1,1-1S235.5,153.4,235.5,154z"/>
				<path class="st3" d="M226.6,144.1c0,0.6-0.4,1-1,1s-1-0.4-1-1s0.4-1,1-1S226.6,143.5,226.6,144.1z"/>
				<path class="st3" d="M231,144.1c0,0.6-0.4,1-1,1s-1-0.4-1-1s0.4-1,1-1S231,143.5,231,144.1z"/>
				<path class="st3" d="M235.4,144.1c0,0.6-0.4,1-1,1s-1-0.4-1-1s0.4-1,1-1S235.4,143.5,235.4,144.1z"/>
				<path class="st3" d="M239.8,144.1c0,0.6-0.4,1-1,1s-1-0.4-1-1s0.4-1,1-1S239.8,143.5,239.8,144.1z"/>
				<path class="st3" d="M244.2,144.1c0,0.6-0.4,1-1,1s-1-0.4-1-1s0.4-1,1-1S244.2,143.5,244.2,144.1z"/>
				<path class="st3" d="M248.6,144.1c0,0.6-0.4,1-1,1s-1-0.4-1-1s0.4-1,1-1S248.6,143.5,248.6,144.1z"/>
				<path class="st3" d="M253,144.1c0,0.6-0.4,1-1,1s-1-0.4-1-1s0.4-1,1-1S253,143.5,253,144.1z"/>
				<path class="st3" d="M257.4,144.1c0,0.6-0.4,1-1,1c-0.6,0-1-0.4-1-1s0.4-1,1-1C256.9,143.1,257.4,143.5,257.4,144.1z"/>
				<polygon class="st3" points="159,42 153.2,51.4 159,54.1 164.8,51.4 				"/>
				<polygon class="st3" points="159,62.4 164.8,53.1 159,56.9 153.2,53.1 				"/>
				<polygon class="st3" points="220.1,222.4 214.3,231.8 220.1,234.5 225.9,231.8 				"/>
				<polygon class="st3" points="220.1,242.8 225.9,233.5 220.1,237.3 214.3,233.5 				"/>
				<polygon class="st3" points="152.1,128.9 148.2,135.1 152.1,136.9 155.9,135.1 				"/>
				<polygon class="st3" points="152.1,142.5 155.9,136.3 152.1,138.8 148.2,136.3 				"/>
				<path class="st3" d="M220.3,35.2c-0.7-0.7-1.8-0.9-2.7-0.5l-2.4-2.3h-8.3c-0.4-0.9-1.5-1.3-2.4-0.8c-0.9,0.4-1.3,1.5-0.8,2.4
					c0.4,0.9,1.5,1.3,2.4,0.8c0.4-0.2,0.6-0.5,0.8-0.8h7.6l1.9,1.9c-0.6,1.2-0.1,2.6,1.1,3.2s2.6,0.1,3.2-1.1
					C221.2,37,221,35.9,220.3,35.2z M219.9,38.2c-0.7,0.7-1.9,0.6-2.6-0.1c-0.4-0.5-0.6-1.2-0.4-1.8c0.2-0.5,0.6-0.9,1.1-1.1
					c0.7-0.2,1.4-0.1,1.9,0.4C220.6,36.3,220.6,37.4,219.9,38.2C219.9,38.2,219.9,38.2,219.9,38.2z"/>
				<path class="st3" d="M214.6,40.4c-0.7-0.7-1.8-0.9-2.7-0.5l-2.4-2.3h-8.3c-0.4-0.9-1.5-1.3-2.4-0.8c-0.9,0.4-1.3,1.5-0.8,2.4
					c0.4,0.9,1.5,1.3,2.4,0.8c0.4-0.2,0.7-0.5,0.8-0.8h7.6l1.9,1.9c-0.6,1.2-0.1,2.6,1.1,3.2s2.6,0.1,3.2-1.1
					C215.5,42.2,215.3,41.1,214.6,40.4L214.6,40.4z M214.2,43.4c-0.7,0.7-1.9,0.7-2.6,0c0,0,0,0,0,0c-0.5-0.5-0.7-1.2-0.4-1.9
					c0.1-0.3,0.2-0.5,0.4-0.7c0.2-0.2,0.4-0.4,0.7-0.4c1-0.3,2,0.2,2.3,1.2C214.8,42.2,214.7,42.9,214.2,43.4L214.2,43.4z"/>
				<path class="st3" d="M47.8,179c-0.7-0.7-1.8-0.9-2.7-0.5l-2.3-2.3h-8.3c-0.4-0.9-1.5-1.3-2.4-0.8c-0.9,0.4-1.3,1.5-0.8,2.4
					c0.4,0.9,1.5,1.3,2.4,0.8c0.4-0.2,0.7-0.5,0.8-0.8h7.6l1.9,1.9c-0.6,1.2-0.1,2.6,1.1,3.2c1.2,0.6,2.6,0.1,3.2-1.1
					C48.8,180.8,48.6,179.7,47.8,179L47.8,179z M47.4,182c-0.7,0.7-1.9,0.7-2.6-0.1c-0.5-0.5-0.6-1.2-0.4-1.8
					c0.1-0.3,0.2-0.5,0.4-0.7c0.7-0.7,1.9-0.6,2.6,0.1C48.1,180.2,48.1,181.3,47.4,182L47.4,182z"/>
				<path class="st3" d="M42.2,184.3c-0.7-0.7-1.8-0.9-2.7-0.5l-2.3-2.3h-8.3c-0.4-0.9-1.5-1.3-2.4-0.8c-0.9,0.4-1.3,1.5-0.8,2.4
					c0.4,0.9,1.5,1.3,2.4,0.8c0.4-0.2,0.7-0.5,0.8-0.8h7.6l1.9,1.9c-0.6,1.2-0.1,2.6,1.1,3.2c1.2,0.6,2.6,0.1,3.2-1.1
					C43.1,186.1,42.9,185,42.2,184.3z M41.8,187.3c-0.7,0.7-1.9,0.7-2.6-0.1c-0.5-0.5-0.6-1.2-0.4-1.8c0.3-1,1.4-1.5,2.4-1.1
					c0.2,0.1,0.5,0.2,0.6,0.4C42.5,185.4,42.5,186.5,41.8,187.3C41.8,187.3,41.8,187.3,41.8,187.3z"/>
				<polygon class="st3" points="174.6,24.9 172,20.4 169.4,24.9 170.8,24.9 170.8,29.1 173.2,29.1 173.2,24.9 				"/>
				<polygon class="st3" points="179.1,30.1 176.5,25.6 173.9,30.1 175.2,30.1 175.2,34.3 177.7,34.3 177.7,30.1 				"/>
				<polygon class="st3" points="108.2,72.6 111.5,78.3 114.8,72.6 113,72.6 113,67.3 109.9,67.3 109.9,72.6 				"/>
				<polygon class="st3" points="102.5,66.1 105.8,71.8 109.1,66.1 107.3,66.1 107.3,60.7 104.3,60.7 104.3,66.1 				"/>
				<polygon class="st3" points="245.9,164 249.2,169.7 252.5,164 250.7,164 250.7,158.7 247.6,158.7 247.6,164 				"/>
				<polygon class="st3" points="240.2,157.5 243.5,163.1 246.8,157.5 245.1,157.5 245.1,152.1 242,152.1 242,157.5 				"/>
				<polygon class="st3" points="66.6,131.6 71.5,128.8 66.6,126 66.6,127.5 62,127.5 62,130.1 66.6,130.1 				"/>
				<polygon class="st3" points="60.9,136.5 65.8,133.7 60.9,130.8 60.9,132.4 56.3,132.4 56.3,135 60.9,135 				"/>
				<path class="st3" d="M278.9,117.3c-0.3-1.5-1.7-2.6-3.3-2.3c-1.1,0.2-2,1.1-2.3,2.2l-1.1,0.1c-1.1,0.1-2.1-0.2-2.9-1l-0.8-0.8
					c0.7-1.4,0.1-3.1-1.3-3.8s-3.1-0.1-3.8,1.3s-0.1,3.1,1.3,3.8c0.8,0.4,1.7,0.4,2.5,0l0.5,0.5c0.8,0.8,1.2,2,0.9,3.2l-0.2,0.8
					c-1.2,0.1-2.2,1.1-2.4,2.2c-0.3,1.5,0.7,3,2.2,3.4c1.5,0.3,3-0.7,3.4-2.2c0.2-1.2-0.3-2.4-1.3-3c0.3-1.5,1.5-2.6,3-2.8h0.1
					c0.7,1.4,2.4,2,3.8,1.3C278.4,119.8,279,118.6,278.9,117.3L278.9,117.3z"/>
				<path class="st3" d="M183.4,235.8c-0.3-1.5-1.7-2.6-3.3-2.3c-1.1,0.2-2,1.1-2.3,2.2l-1.1,0.1c-1.1,0.1-2.1-0.2-2.9-1l-0.8-0.8
					c0.7-1.4,0.1-3.1-1.3-3.8s-3.1-0.1-3.8,1.3s-0.1,3.1,1.3,3.8c0.8,0.4,1.7,0.4,2.5,0l0.5,0.5c0.8,0.8,1.2,2,0.9,3.2l-0.2,0.8
					c-1.2,0.1-2.2,1.1-2.4,2.2c-0.3,1.5,0.7,3,2.2,3.4s3-0.7,3.4-2.2c0.2-1.2-0.3-2.4-1.3-3c0.3-1.5,1.5-2.6,3-2.8h0.1
					c0.7,1.4,2.4,2,3.8,1.3C182.9,238.3,183.5,237.1,183.4,235.8L183.4,235.8z"/>
				<path class="st3" d="M134.2,42.5c-0.3-1.5-1.7-2.6-3.3-2.3c-1.2,0.2-2.1,1.1-2.3,2.2l-1.1,0.1c-1.1,0.1-2.1-0.2-2.9-1l-0.8-0.8
					c0.7-1.4,0.1-3.1-1.3-3.8s-3.1-0.1-3.8,1.3c-0.7,1.4-0.1,3.1,1.3,3.8c0.8,0.4,1.7,0.4,2.5,0l0.5,0.5c0.9,0.8,1.2,2,1,3.2
					l-0.2,0.8c-1.2,0.1-2.2,1.1-2.4,2.2c-0.3,1.5,0.6,2.9,2.1,3.3c1.5,0.4,3.1-0.5,3.5-2c0.3-1.2-0.2-2.5-1.3-3.2
					c0.3-1.5,1.5-2.6,3-2.8h0.1c0.7,1.4,2.4,2,3.8,1.3C133.8,45,134.4,43.8,134.2,42.5L134.2,42.5z"/>
				<polygon class="st3" points="222.7,197.8 220.1,193.3 217.5,197.8 218.9,197.8 218.9,202 221.4,202 221.4,197.8 				"/>
				<polygon class="st3" points="227.2,203 224.6,198.5 222,203 223.4,203 223.4,207.2 225.8,207.2 225.8,203 				"/>
				<path class="st3" d="M236.9,243.7c0,0.6-0.4,1-1,1s-1-0.4-1-1s0.4-1,1-1S236.9,243.1,236.9,243.7z"/>
				<path class="st3" d="M241.3,243.7c0,0.6-0.5,1-1,1c-0.6,0-1-0.5-1-1s0.5-1,1-1C240.8,242.6,241.3,243.1,241.3,243.7z"/>
				<path class="st3" d="M245.7,243.7c0,0.6-0.5,1-1,1c-0.6,0-1-0.5-1-1s0.5-1,1-1C245.2,242.6,245.7,243.1,245.7,243.7z"/>
				<path class="st3" d="M250.1,243.7c0,0.6-0.4,1-1,1s-1-0.4-1-1s0.4-1,1-1S250.1,243.1,250.1,243.7z"/>
				<path class="st3" d="M254.4,243.7c0,0.6-0.4,1-1,1s-1-0.4-1-1s0.4-1,1-1S254.4,243.1,254.4,243.7z"/>
				<path class="st3" d="M258.8,243.7c0,0.6-0.4,1-1,1s-1-0.4-1-1s0.4-1,1-1S258.8,243.1,258.8,243.7z"/>
				<path class="st3" d="M263.2,243.7c0,0.6-0.4,1-1,1s-1-0.4-1-1c0-0.5,0.4-1,1-1C262.7,242.6,263.2,243.1,263.2,243.7
					C263.2,243.6,263.2,243.6,263.2,243.7z"/>
				<path class="st3" d="M267.6,243.7c0,0.6-0.5,1-1,1c-0.6,0-1-0.5-1-1s0.5-1,1-1C267.1,242.6,267.6,243.1,267.6,243.7z"/>
			</g>
			<path class="st4" d="M87,255.3l22.4-53.6l-3.6-1.4l-20.4,54.4c-0.3,0.4-0.2,0.9,0.2,1.2c0.4,0.3,0.9,0.2,1.2-0.2
				C86.9,255.5,87,255.4,87,255.3L87,255.3z"/>
			<path class="st5" d="M105.2,201.9l2.3,0.9l-21.1,53.1c0.3-0.1,0.5-0.4,0.6-0.6l22.4-53.6l-3.6-1.4L105.2,201.9z"/>
			<path class="st4" d="M122.5,255l1.1-58.1h-3.9l1.1,58.1c-0.1,0.5,0.2,0.9,0.6,1.1c0.5,0.1,0.9-0.2,1.1-0.6
				C122.5,255.3,122.5,255.1,122.5,255z"/>
			<path class="st5" d="M119.8,198.4h2.9l-1.1,57.6h0.1c0.5-0.1,0.9-0.5,0.8-1.1l1.1-58.1h-3.9L119.8,198.4z"/>
			<path class="st4" d="M156.3,255.3l-22.4-53.6l3.6-1.4l20.4,54.4c0.3,0.4,0.2,0.9-0.2,1.2c-0.4,0.3-0.9,0.2-1.2-0.2
				C156.4,255.6,156.3,255.4,156.3,255.3L156.3,255.3z"/>
			<g class="st6">
				<path d="M157.9,254.7l-20.4-54.4l-3.6,1.4l0.4,1l2.2-0.9l20.3,54.1c0.2,0.1,0.5,0.2,0.7,0.1C158,255.7,158.1,255.1,157.9,254.7z
					"/>
			</g>
			<path class="st7" d="M147.3,201.6c-3.9,3.2-9.7,6.1-24.5,6.4c-19.4,0.4-29.6-1.8-35.1-11.8c-9.2-16.7,2.3-70.7,20.5-58.8
				c15.2,10,18.2,41.9,20.2,46.3C130.5,188.2,156.8,193.9,147.3,201.6z"/>
			<path class="st8" d="M126.2,203.9c-19.4,0.4-29.6-1.8-35.1-11.8c-6.3-11.4-2.9-40.2,5.7-53.5c-11,10.1-16.1,44.8-9,57.6
				c5.5,10,15.7,12.2,35.1,11.8c14.8-0.3,20.6-3.2,24.5-6.4c1.1-0.7,1.8-1.9,2.1-3.1C145.4,201.2,139.4,203.6,126.2,203.9z"/>
			<path class="st9" d="M150.6,241.4c0.2,1.4-2.4,5.2,1.2,8.3s11.8,6.5,6.4,6.6c-4.6,0.2-9.1-0.7-13.4-2.5c-2.8-1.4-0.6-3.5-4-4.6
				c-4.5-1.4-4.4-1.7-2.3-6.6C141.5,235.9,149.8,236.8,150.6,241.4z"/>
			<path class="st10" d="M155.8,246.2c0.6,1.2,3.6,4,7.8,5.9s13,2.7,8.1,4.4c-4.9,1.6-10.6,0.6-13.5,0.2c-3-0.4-6.1-0.6-9.1-0.5
				c-4.5,0-4.5-0.3-3.9-5.4C146,243.7,153.8,242.2,155.8,246.2z"/>
			<path class="st11" d="M145.2,243.4l1.8,4.3c0,0,4.3,1,6.4-0.1s1.2-2,1.2-2l-1.8-6.3L145.2,243.4z"/>
			<path class="st10" d="M125.7,186c0,0,18.5,4,25.2,5.7s11.9,4.5,8.8,15.7s-8.4,31.7-8.4,31.7h-11.9l6.3-36.7l-34.9-4.1l-6.4-14.3
				L125.7,186z"/>
			<path class="st12" d="M98.4,186c0.8,5.8-0.9,12.4,8,15s22.9,2.8,22.9,2.8l14,42c2.9,0.3,5.9,0,8.7-0.9c2-0.6,2.7-3.1,2.7-3.1
				L142,198.9c-1-3.3-3.6-5.9-7-6.8l-21.5-6.5L98.4,186z"/>
			<path class="st13" d="M101.6,166.7c0.9,2.2,1.1,4.7,0.6,7c-1,4.7,0.2,5,0.2,5c3.6,2.3,7.5,4.2,11.6,5.7c3.8,1.2,7,1,6.9-3.2l0,0
				c0-0.3,0-0.5,0-0.7c-0.2-9.4,1.8-9.8,2.3-20.3c0.5-10.8-2.4-16.8-5.2-19.4s-6.8-2.7-14.1-1c-5.5,1.3-7.3,2.8-7.3,6.8
				c0.1,1.7,0.3,3.4,0.6,5C98.2,156.8,99.7,161.8,101.6,166.7z"/>
			<path class="st14" d="M101.6,166.7c0.9,2.2,1.1,4.7,0.6,7c-1,4.7,0.2,5,0.2,5c3.6,2.3,7.5,4.2,11.6,5.7l4.9-0.5l2-1.6v-1.2
				c0-0.3,0-0.5,0-0.7c-2.5,0.2-5,0.1-7.4-0.2c-2.5-0.3-4.9-0.9-7.3-1.8c-1.3-0.5-2-1.8-1.8-3.2c0.4-2.2,0.6-4.3,0.7-6.5
				c-0.3-2.7-0.9-5.4-1.8-8.1c-0.6-1.9-0.8-4-0.7-6c0.1-2.3,0.1-4.5,0-6.8l-3.9-2.1l-2.2,0.8c0.1,1.7,0.3,3.4,0.6,5
				C98.2,156.7,99.7,161.8,101.6,166.7z"/>
			<path class="st15" d="M119.3,121.5c0.3,0.8,0.2,1.7-0.2,2.4l-3-4.1h2.1L119.3,121.5z"/>
			<path class="st11" d="M102.9,126.9c0.1,5.3,4.7,8.3,4.7,8.3l-0.3,4.8l3.1,2l2.1,1.4l1.2-2.5l0.2-3.1c0-0.7,0.6-1.3,1.3-1.5
				c1.2-0.3,2.2-0.9,3-1.8c0.1-0.1,0.1-0.2,0.2-0.2l0,0c2-2.7,2.8-13.1-4.1-16.1C107.2,115.1,102.8,121.6,102.9,126.9z"/>
			<path class="st16" d="M110.6,139.1l-0.2,2.9l2.1,1.4l1.2-2.5l0.2-3.1c0-0.7,0.6-1.3,1.3-1.5c1.2-0.3,2.2-0.9,3-1.8
				c0.1-0.1,0.1-0.2,0.2-0.2c-1.3,0.7-2.8,1.2-4.3,1.3C112.1,135.8,110.7,137.3,110.6,139.1z"/>
			<path class="st15" d="M110.3,128.5c-0.3,0.1-0.5-0.3-0.5-0.3c-0.6-1.3-1.2-2.6-2-3.8c-0.9-0.9-3.1-0.8-3.2,2
				c-0.1,2.2,2.5,6.9,3.3,8.3c0.1,0.2,0.1,0.5-0.1,0.7c-0.1,0.1-0.2,0.1-0.3,0.1l0,0c-0.1,0-0.2,0-0.3-0.1
				c-1.7-1.5-9.1-8.6-3.2-15.3c0,0,4.7,0.3,5.4,2.6c0.5,1.8,0.9,3.5,1.2,5.3C110.4,127.9,110.6,128.4,110.3,128.5z"/>
			<path class="st15" d="M119.3,121.5c0,0-4.1-3.2-10.3,0.7l-5.1-1.3c0,0-0.2-0.1-0.1-0.8s0.7-8.2,9.6-6.6
				C118.5,114.5,121.7,118,119.3,121.5z"/>
			<path class="st15" d="M107.3,137.8c-0.6,0.4-1.1,0.9-1.5,1.5c0.7,0.3,1.3,0.6,1.9,1c0.8,0.5,4.7,3.2,4.7,3.2l1.1-2.3
				C113.6,141.2,109.5,138.4,107.3,137.8z"/>
			<path class="st15" d="M113.6,141.2c0.7,0.3,1.4,0.8,1.8,1.5c0.4-1.2,0.4-2.5-0.2-3.7c-0.4-0.4-0.8-0.7-1.3-0.9L113.6,141.2z"/>
			<path class="st17" d="M102.8,183.3c0.3,0.4,0.6,0.7,0.9,1c0.2,0.1,0.2-0.1,0.2-0.3S102.8,183,102.8,183.3z"/>
			<path class="st15" d="M107.4,135.5L107.4,135.5c-0.1,0-0.2,0-0.3-0.1c-1.7-1.5-9.1-8.6-3.2-15.3c-0.2,0.7-0.2,1.4-0.2,2.1
				C103.7,122.2,99.9,128.3,107.4,135.5z"/>
			<path class="st11" d="M90.9,159.9c0,0-3.9,18.1-2.1,19.5s22.9,1.6,24.8,1.9s10,1.6,14.1-2c0.5-0.5-2.5-0.3-3.2-1.8s0.4-1.4,0-2.1
				c-1.4-2.6-9.7,0.6-9.7,0.6s-13.6-2.4-17.5-1.2c2.4-2.9,2.9-13.5,2.9-13.5L90.9,159.9z"/>
			<path class="st15" d="M89.8,160.8c0,0,2.6-16.6,7.7-18.9s8.6,4.9,6.7,12.3s-2.3,10.1-2.3,10.1S94.4,165.1,89.8,160.8z"/>
			<polygon class="st18" points="87.3,264.1 83.7,264.1 86.6,182 93.7,182 			"/>
			<polygon class="st19" points="86.2,192.2 92.9,192.2 93.7,182 86.6,182 			"/>
			<polygon class="st18" points="246.9,264.1 250.5,264.1 247.7,182 240.5,182 			"/>
			<polygon class="st19" points="248,192.2 241.3,192.2 240.5,182 247.7,182 			"/>
			<path class="st20" d="M79.6,178.9h175.1c1.7,0,3.1,1.4,3.1,3.1v0.6c0,1.7-1.4,3.1-3.1,3.1H79.6c-1.7,0-3.1-1.4-3.1-3.1V182
				C76.5,180.3,77.9,178.9,79.6,178.9z"/>
			
				<linearGradient id="SVGID_1_" gradientUnits="userSpaceOnUse" x1="167.145" y1="175" x2="167.145" y2="150.83" gradientTransform="matrix(1 0 0 -1 0 348)">
				<stop  offset="0" style="stop-color:#FFE7DB"/>
				<stop  offset="0.24" style="stop-color:#FDE4D8"/>
				<stop  offset="0.41" style="stop-color:#F5DBD0"/>
				<stop  offset="0.56" style="stop-color:#E8CBC2"/>
				<stop  offset="0.69" style="stop-color:#D6B5AE"/>
				<stop  offset="0.82" style="stop-color:#BE9994"/>
				<stop  offset="0.94" style="stop-color:#A27674"/>
				<stop  offset="1" style="stop-color:#916262"/>
			</linearGradient>
			<path class="st21" d="M76.6,183.4c0.4,1.3,1.6,2.2,2.9,2.2h175.1c1.4,0,2.6-0.9,3-2.2H76.6z"/>
			<path class="st22" d="M153.9,178.9h-51.7l0,0v-0.2c0-0.6,0.5-1.2,1.2-1.2h50.6l0,0V178.9L153.9,178.9z"/>
			
				<linearGradient id="SVGID_2_" gradientUnits="userSpaceOnUse" x1="-120.4689" y1="181.8838" x2="-120.4689" y2="162.7538" gradientTransform="matrix(-1 0 0.16 -1.01 -10.88 353.68)">
				<stop  offset="0" style="stop-color:#FFFFFF"/>
				<stop  offset="1" style="stop-color:#FFADAD"/>
			</linearGradient>
			<path class="st23" d="M119.8,178.9h35l3.4-21.4c0.2-0.9-0.4-1.8-1.2-2c-0.1,0-0.3,0-0.4,0h-31c-1.1,0-2.1,0.9-2.3,2L119.8,178.9z
				"/>
			<path class="st24" d="M125.4,155.5h1c-1.1,0-2.1,0.9-2.3,2l-3.4,21.4h-1l3.4-21.4C123.3,156.4,124.3,155.5,125.4,155.5z"/>
			<path class="st24" d="M135.3,167.2c-0.4,1.7,0.7,3.4,2.5,3.8c0.2,0,0.5,0.1,0.7,0.1c2.2-0.1,4-1.7,4.4-3.8
				c0.4-1.7-0.7-3.4-2.4-3.8c-0.2-0.1-0.5-0.1-0.8-0.1C137.5,163.4,135.7,165,135.3,167.2z"/>
			<path class="st25" d="M192.9,96.9c0,1.9-1.6,3.5-3.5,3.5c-1.9,0-3.5-1.6-3.5-3.5c0-1.9,1.6-3.5,3.5-3.5c0,0,0,0,0,0
				C191.3,93.4,192.9,94.9,192.9,96.9C192.9,96.9,192.9,96.9,192.9,96.9z"/>
			<line class="st26" x1="99.8" y1="96.9" x2="100.6" y2="96.9"/>
			<line class="st27" x1="101.6" y1="96.9" x2="220.3" y2="96.9"/>
			<line class="st26" x1="220.8" y1="96.9" x2="221.6" y2="96.9"/>
			<line class="st28" x1="189.4" y1="98" x2="189.4" y2="145.4"/>
			<path class="st29" d="M211.8,83.8h40.9c0.7,0,1.3,0.6,1.3,1.3v24c0,0.7-0.6,1.3-1.3,1.3h-40.9c-0.7,0-1.3-0.6-1.3-1.3V85
				C210.6,84.3,211.1,83.8,211.8,83.8z"/>
			<path class="st30" d="M214.3,106.8v-8.5c0-0.5,0.4-0.8,0.8-0.8h0.7c0.5,0,0.8,0.4,0.8,0.8v8.5c0,0.5-0.4,0.8-0.8,0.8h-0.7
				C214.6,107.6,214.3,107.2,214.3,106.8z"/>
			<path class="st30" d="M219.1,106.8v-8.5c0-0.5,0.4-0.8,0.8-0.8h0.7c0.5,0,0.8,0.4,0.8,0.8v8.5c0,0.5-0.4,0.8-0.8,0.8H220
				C219.5,107.6,219.1,107.2,219.1,106.8z"/>
			<path class="st30" d="M224,106.8V94.3c0-0.5,0.4-0.8,0.8-0.8h0.7c0.5,0,0.8,0.4,0.8,0.8v12.5c0,0.5-0.4,0.8-0.8,0.8h-0.7
				C224.4,107.6,224,107.2,224,106.8z"/>
			<path class="st30" d="M228.9,106.8V92.4c0-0.5,0.4-0.8,0.8-0.8h0.7c0.5,0,0.8,0.4,0.8,0.8v14.4c0,0.5-0.4,0.8-0.8,0.8h-0.7
				C229.2,107.6,228.9,107.2,228.9,106.8z"/>
			<path class="st30" d="M233.7,106.8V95.3c0-0.5,0.4-0.8,0.8-0.8h0.7c0.5,0,0.8,0.4,0.8,0.8v11.4c0,0.5-0.4,0.8-0.8,0.8h-0.7
				C234.1,107.6,233.7,107.2,233.7,106.8z"/>
			<path class="st30" d="M238.6,106.8v-6.9c0-0.5,0.4-0.8,0.8-0.8h0.7c0.5,0,0.8,0.4,0.8,0.8v6.9c0,0.5-0.4,0.8-0.8,0.8h-0.7
				C239,107.6,238.6,107.2,238.6,106.8z"/>
			<path class="st30" d="M244,106.8V95.3c0-0.5,0.4-0.8,0.8-0.8h0.7c0.5,0,0.8,0.4,0.8,0.8v11.4c0,0.5-0.4,0.8-0.8,0.8h-0.7
				C244.4,107.6,244,107.2,244,106.8z"/>
			<path class="st30" d="M248.9,106.8v-6.9c0-0.5,0.4-0.8,0.8-0.8h0.7c0.5,0,0.8,0.4,0.8,0.8v6.9c0,0.5-0.4,0.8-0.8,0.8h-0.7
				C249.2,107.6,248.9,107.2,248.9,106.8z"/>
			<path class="st31" d="M214.6,86.8h8.6c0.2,0,0.4,0.2,0.4,0.4v0.4c0,0.2-0.2,0.4-0.4,0.4h-8.6c-0.2,0-0.4-0.2-0.4-0.4v-0.4
				C214.3,87,214.4,86.8,214.6,86.8z"/>
			<path class="st31" d="M214.6,90.8h5.5c0.2,0,0.4,0.2,0.4,0.4v0.4c0,0.2-0.2,0.4-0.4,0.4h-5.5c-0.2,0-0.4-0.2-0.4-0.4v-0.4
				C214.3,91,214.4,90.8,214.6,90.8z"/>
			<path class="st29" d="M164.5,124h48.6c2.4,0,4.4,2,4.4,4.4v39.1c0,0.5-0.4,0.9-0.9,0.9l0,0h-54.1c-0.5,0-0.9-0.4-0.9-0.9l0,0
				v-40.5C161.6,125.3,162.9,124,164.5,124z"/>
			<path class="st32" d="M167.7,155.6h14.5c1.1,0,2.1,0.9,2.1,2.1v5.1c0,1.1-0.9,2.1-2.1,2.1h-14.5c-1.1,0-2.1-0.9-2.1-2.1v-5.1
				C165.6,156.6,166.6,155.6,167.7,155.6z"/>
			<g class="st33">
				<path class="st31" d="M193.2,131.2h-26.7c-0.5,0-0.8-0.4-0.8-0.8l0,0l0,0c0-0.5,0.4-0.8,0.8-0.8l0,0h26.7c0.5,0,0.8,0.4,0.8,0.8
					l0,0C194,130.8,193.6,131.2,193.2,131.2L193.2,131.2z"/>
				<path class="st31" d="M193.2,134.6h-26.7c-0.5,0-0.8-0.4-0.8-0.8l0,0l0,0c0-0.5,0.4-0.8,0.8-0.8l0,0h26.7c0.5,0,0.8,0.4,0.8,0.8
					l0,0l0,0C194,134.3,193.6,134.6,193.2,134.6L193.2,134.6z"/>
				<path class="st31" d="M193.2,138.1h-26.7c-0.5,0-0.8-0.4-0.8-0.8l0,0l0,0c0-0.5,0.4-0.8,0.8-0.8l0,0h26.7c0.5,0,0.8,0.4,0.8,0.8
					l0,0l0,0C194,137.7,193.6,138.1,193.2,138.1L193.2,138.1z"/>
				<path class="st31" d="M193.2,141.5h-26.7c-0.5,0-0.8-0.4-0.8-0.8l0,0l0,0c0-0.5,0.4-0.8,0.8-0.8l0,0h26.7c0.5,0,0.8,0.4,0.8,0.8
					l0,0l0,0C194,141.1,193.6,141.5,193.2,141.5z"/>
				<path class="st31" d="M193.2,144.9h-26.7c-0.5,0-0.8-0.4-0.8-0.8l0,0l0,0c0-0.5,0.4-0.8,0.8-0.8l0,0h26.7c0.5,0,0.8,0.4,0.8,0.8
					l0,0C194,144.6,193.6,144.9,193.2,144.9L193.2,144.9z"/>
				<path class="st31" d="M189,147.8h-22.5c-0.5,0-0.8-0.4-0.8-0.8l0,0l0,0c0-0.5,0.4-0.8,0.8-0.8l0,0H189c0.5,0,0.8,0.4,0.8,0.8
					l0,0l0,0C189.8,147.4,189.5,147.8,189,147.8L189,147.8z"/>
			</g>
			<polygon class="st34" points="199.2,162.9 199.5,163.5 200.3,163.6 199.7,164.2 199.9,164.9 199.2,164.6 198.5,164.9 
				198.7,164.2 198.1,163.6 198.9,163.5 			"/>
			<polygon class="st34" points="202.5,162.9 202.8,163.5 203.6,163.6 203,164.2 203.1,164.9 202.5,164.6 201.8,164.9 201.9,164.2 
				201.4,163.6 202.2,163.5 			"/>
			<polygon class="st34" points="205.8,162.9 206.1,163.5 206.9,163.6 206.3,164.2 206.4,164.9 205.8,164.6 205.1,164.9 
				205.2,164.2 204.7,163.6 205.4,163.5 			"/>
			<polygon class="st34" points="209.1,162.9 209.4,163.5 210.1,163.6 209.6,164.2 209.7,164.9 209.1,164.6 208.4,164.9 
				208.5,164.2 208,163.6 208.8,163.5 			"/>
			<polygon class="st34" points="212.4,162.9 212.7,163.5 213.4,163.6 212.9,164.2 213,164.9 212.4,164.6 211.7,164.9 211.8,164.2 
				211.3,163.6 212,163.5 			"/>
			<path class="st35" d="M214.3,122.5h-49.5c-1.8,0-3.2,1.4-3.2,3.2v1.5h56v-1.5C217.6,124,216.1,122.5,214.3,122.5
				C214.3,122.5,214.3,122.5,214.3,122.5z"/>
			<circle class="st29" cx="208.7" cy="124.9" r="0.5"/>
			<circle class="st29" cx="211.3" cy="124.9" r="0.5"/>
			<circle class="st29" cx="213.8" cy="124.9" r="0.5"/>
			<path class="st31" d="M197.6,129.6h16.9c0.5,0,0.8,0.4,0.8,0.8v17.1c0,0.5-0.4,0.8-0.8,0.8h-16.9c-0.5,0-0.8-0.4-0.8-0.8v-17.1
				C196.8,129.9,197.1,129.6,197.6,129.6z"/>
			<path class="st29" d="M205.9,145.5c-3.6,0-6.5-2.9-6.5-6.5c0-3.6,2.9-6.5,6.5-6.5c3.6,0,6.5,2.9,6.5,6.5c0,0,0,0,0,0
				C212.4,142.6,209.5,145.5,205.9,145.5z M205.9,133.1c-3.2,0-5.8,2.6-5.8,5.9s2.6,5.8,5.9,5.8s5.8-2.6,5.8-5.8
				C211.7,135.7,209.1,133.1,205.9,133.1z"/>
			<path class="st29" d="M205.9,145.5c-1.6,0-2.9-2.9-2.9-6.5s1.3-6.5,2.9-6.5s2.9,2.9,2.9,6.5S207.5,145.5,205.9,145.5z
				 M205.9,133.1c-1.1,0-2.2,2.4-2.2,5.9s1.2,5.9,2.2,5.9s2.2-2.4,2.2-5.9S206.9,133.1,205.9,133.1z"/>
			<rect x="199.7" y="138.6" class="st29" width="12.4" height="0.7"/>
			<path class="st29" d="M205.9,136.5c-3.6,0-4.9-1.3-4.9-1.3l0.5-0.5l-0.2,0.2l0.2-0.2c0,0,1.2,1.1,4.4,1.1s4.4-1.1,4.4-1.1
				l0.5,0.5C210.7,135.3,209.4,136.5,205.9,136.5z"/>
			<path class="st29" d="M201.4,143.2l-0.5-0.5c0-0.1,1.3-1.3,4.9-1.3s4.9,1.3,4.9,1.3l-0.5,0.5c0,0-1.1-1.1-4.4-1.1
				S201.4,143.1,201.4,143.2z"/>
			<circle class="st29" cx="144.1" cy="97.1" r="22.1"/>
			<circle class="st36" cx="144.1" cy="97.1" r="18.8"/>
			<path class="st35" d="M149.3,96.4c1.5-0.6,2.5-2.2,2.3-3.8c0-2.6-1.7-4.2-4.5-4.4v-2.3h-2.8v2.3H143v-2.3h-2.8v2.3h-2.1v3.6h2
				v10.4h-2v3.6h2.1v2.6h2.8v-2.6h1.3v2.6h2.8v-2.6c3-0.1,5-2,5-4.9C152.1,98.6,151,96.9,149.3,96.4z M143.6,91.8h2.7
				c0.2,0,0.5,0,0.7,0.1c0.6,0.3,0.9,0.9,0.9,1.5c0.1,0.7-0.3,1.3-0.9,1.6c-0.2,0.1-0.5,0.1-0.7,0.1h-2.7V91.8z M147.1,102.1
				c-0.2,0.1-0.5,0.1-0.7,0.1h-2.7v-3.7h2.7c0.2,0,0.5,0,0.7,0.1c0.8,0.2,1.3,0.9,1.3,1.7C148.5,101.2,147.9,101.9,147.1,102.1z"/>
			<circle class="st29" cx="85.5" cy="94.1" r="17.5"/>
			<polygon class="st29" points="88.7,108.4 95.8,116.1 94.9,105 			"/>
			<path class="st31" d="M95.7,96c0.2-1.2,0.2-2.5,0-3.7h-2.5c-0.2-0.8-0.5-1.6-0.9-2.3l1.8-1.8c-0.7-1-1.6-1.9-2.6-2.6l-1.8,1.8
				c-0.7-0.4-1.5-0.7-2.3-0.9V84c-0.6-0.1-1.2-0.2-1.8-0.2c-0.6,0-1.2,0.1-1.8,0.2v2.5c-0.8,0.2-1.6,0.5-2.3,0.9l-1.8-1.8
				c-1,0.7-1.9,1.6-2.6,2.6l1.8,1.7c-0.4,0.7-0.7,1.5-0.9,2.2h-2.5c-0.2,1.2-0.2,2.5,0,3.7h2.5c0.2,0.8,0.5,1.6,0.9,2.3l-1.8,1.8
				c0.7,1,1.6,1.9,2.6,2.6l1.8-1.8c0.7,0.4,1.5,0.7,2.3,0.9v2.5c0.6,0.1,1.2,0.2,1.8,0.2c0.6,0,1.2-0.1,1.8-0.2v-2.5
				c0.8-0.2,1.6-0.5,2.3-0.9l1.8,1.8c1-0.7,1.9-1.6,2.6-2.6l-1.8-1.8c0.4-0.7,0.8-1.4,1-2.2H95.7z M85.5,96.6
				c-1.3,0-2.4-1.1-2.4-2.5c0-1.3,1.1-2.4,2.5-2.4c1.3,0,2.4,1.1,2.4,2.4C88,95.5,86.9,96.5,85.5,96.6
				C85.6,96.5,85.6,96.5,85.5,96.6L85.5,96.6z"/>
		</g>
	</g>
</g>
</svg>
