<svg xmlns="http://www.w3.org/2000/svg" xmlns:xlink="http://www.w3.org/1999/xlink" viewBox="0 0 358.51 345.19"><defs><style>.cls-1{isolation:isolate;}.cls-2{fill:#d6d6d6;opacity:0.17;}.cls-2,.cls-21,.cls-4,.cls-5{mix-blend-mode:multiply;}.cls-3,.cls-32,.cls-33,.cls-34{fill:#184c82;}.cls-4{fill:#909090;opacity:0.34;}.cls-5{opacity:0.43;}.cls-6{fill:#4c7693;}.cls-7{fill:#723e24;}.cls-8{opacity:0.37;}.cls-9{fill:#e8f6f7;}.cls-10{fill:#d0e0e2;}.cls-11{fill:#0a1828;}.cls-12{fill:#132333;}.cls-13{fill:#ffadad;}.cls-14{fill:#254a68;}.cls-15{fill:#a67070;}.cls-16{fill:#916262;opacity:0.38;}.cls-17{fill:#5b2f2f;}.cls-18{fill:#f29e9e;}.cls-19{fill:#e5bb98;}.cls-20{fill:#e6e7e8;}.cls-21,.cls-26,.cls-37{opacity:0.2;}.cls-22{fill:#ffe7db;}.cls-23{fill:url(#linear-gradient);}.cls-24{fill:#9a9fb3;}.cls-25{fill:url(#linear-gradient-2);}.cls-26{fill:#212226;}.cls-27{fill:#77affd;}.cls-28,.cls-29,.cls-30,.cls-37{fill:none;stroke-width:0.5px;}.cls-28,.cls-29,.cls-30{stroke:#77affd;stroke-linecap:round;stroke-linejoin:round;}.cls-29{stroke-dasharray:1.59 1;}.cls-30{stroke-dasharray:1.6 1;}.cls-31{fill:#fff;}.cls-32,.cls-35{opacity:0.55;}.cls-33{opacity:0.31;}.cls-34{opacity:0.12;}.cls-36{fill:#6d26d7;}.cls-37{stroke:#212226;stroke-miterlimit:10;}</style><linearGradient id="linear-gradient" x1="167.12" y1="173" x2="167.12" y2="197.17" gradientUnits="userSpaceOnUse"><stop offset="0" stop-color="#ffe7db"/><stop offset="0.24" stop-color="#fde4d8"/><stop offset="0.41" stop-color="#f5dbd0"/><stop offset="0.56" stop-color="#e8cbc2"/><stop offset="0.69" stop-color="#d6b5ae"/><stop offset="0.82" stop-color="#be9994"/><stop offset="0.94" stop-color="#a27674"/><stop offset="1" stop-color="#916262"/></linearGradient><linearGradient id="linear-gradient-2" x1="1497.75" y1="169.74" x2="1497.75" y2="188.87" gradientTransform="matrix(-1, 0, -0.16, 1.01, 1663.36, -1.46)" gradientUnits="userSpaceOnUse"><stop offset="0" stop-color="#fff"/><stop offset="1" stop-color="#ffadad"/></linearGradient></defs><title>Asset 6</title><g class="cls-1"><g id="Layer_2" data-name="Layer 2"><g id="OBJECTS"><path class="cls-2" d="M40.45,285.25C86.81,339.7,145.32,353,215,341.21s148.59-45.83,143.28-133.06-91.57-96.09-142.78-162.4C184.55,5.7,106.17-.54,53.65,50.47,15.19,87.84-38,193.07,40.45,285.25Z"/><path class="cls-3" d="M194.56,3.23c58.2,19.64,53.86,84.36,88.12,136.26s34,100.84,9.45,135.47S198.61,331.23,128,297.53c-35.75-17.07-85.62-45-90.79-124.78C31.45,83.87,126.6-19.7,194.56,3.23Z"/><path class="cls-4" d="M37.13,240.07c35.61,49.09,84.2,64.22,143.87,58.8s128.64-29,129.89-103.06-71.08-87.27-110-146.7C177.36,13.21,111.5,2.78,63.74,42.45,28.77,71.5-23.15,157,37.13,240.07Z"/><ellipse class="cls-3" cx="167.12" cy="264.62" rx="97.58" ry="14.47"/><g class="cls-5"><path class="cls-6" d="M225.92,53.09a1,1,0,1,1-1-1.05A1,1,0,0,1,225.92,53.09Z"/><path class="cls-6" d="M230.31,53.09a1,1,0,1,1-1-1.05A1,1,0,0,1,230.31,53.09Z"/><path class="cls-6" d="M234.7,53.09a1,1,0,1,1-1-1.05A1,1,0,0,1,234.7,53.09Z"/><path class="cls-6" d="M239.08,53.09A1,1,0,1,1,238,52,1,1,0,0,1,239.08,53.09Z"/><circle class="cls-6" cx="242.43" cy="53.09" r="1.04"/><path class="cls-6" d="M247.86,53.09a1,1,0,1,1-1-1.05A1,1,0,0,1,247.86,53.09Z"/><path class="cls-6" d="M252.25,53.09a1,1,0,1,1-1-1.05A1,1,0,0,1,252.25,53.09Z"/><path class="cls-6" d="M256.64,53.09a1,1,0,1,1-1-1.05A1,1,0,0,1,256.64,53.09Z"/><path class="cls-6" d="M170,75a1,1,0,1,1-1-1.05A1,1,0,0,1,170,75Z"/><path class="cls-6" d="M174.36,75a1,1,0,1,1-1-1.05A1,1,0,0,1,174.36,75Z"/><path class="cls-6" d="M178.75,75a1,1,0,1,1-1-1.05A1,1,0,0,1,178.75,75Z"/><path class="cls-6" d="M183.14,75a1,1,0,1,1-1-1.05A1,1,0,0,1,183.14,75Z"/><path class="cls-6" d="M187.52,75a1,1,0,1,1-1-1.05A1,1,0,0,1,187.52,75Z"/><path class="cls-6" d="M191.91,75a1,1,0,1,1-1-1.05A1,1,0,0,1,191.91,75Z"/><path class="cls-6" d="M196.3,75a1,1,0,1,1-1-1.05A1,1,0,0,1,196.3,75Z"/><path class="cls-6" d="M200.69,75a1,1,0,1,1-1-1.05A1,1,0,0,1,200.69,75Z"/><path class="cls-6" d="M179.9,81.21a1,1,0,1,1-1-1A1,1,0,0,1,179.9,81.21Z"/><path class="cls-6" d="M184.29,81.21a1,1,0,1,1-1-1A1,1,0,0,1,184.29,81.21Z"/><path class="cls-6" d="M188.68,81.21a1,1,0,1,1-1.05-1A1,1,0,0,1,188.68,81.21Z"/><path class="cls-6" d="M193.06,81.21a1,1,0,1,1-2.08,0,1,1,0,0,1,2.08,0Z"/><path class="cls-6" d="M197.45,81.21a1,1,0,1,1-1-1A1,1,0,0,1,197.45,81.21Z"/><path class="cls-6" d="M201.84,81.21a1,1,0,1,1-1-1A1,1,0,0,1,201.84,81.21Z"/><path class="cls-6" d="M206.23,81.21a1,1,0,1,1-1-1A1,1,0,0,1,206.23,81.21Z"/><path class="cls-6" d="M210.62,81.21a1,1,0,1,1-1-1A1,1,0,0,1,210.62,81.21Z"/><path class="cls-6" d="M166.64,205.21a1,1,0,1,1-1-1A1,1,0,0,1,166.64,205.21Z"/><path class="cls-6" d="M171,205.21a1,1,0,1,1-1.05-1A1,1,0,0,1,171,205.21Z"/><path class="cls-6" d="M175.41,205.21a1,1,0,1,1-1-1A1,1,0,0,1,175.41,205.21Z"/><path class="cls-6" d="M179.8,205.21a1,1,0,1,1-1-1A1,1,0,0,1,179.8,205.21Z"/><path class="cls-6" d="M184.19,205.21a1,1,0,0,1-2.08,0,1,1,0,1,1,2.08,0Z"/><path class="cls-6" d="M188.58,205.21a1,1,0,1,1-1-1A1,1,0,0,1,188.58,205.21Z"/><path class="cls-6" d="M193,205.21a1,1,0,1,1-1.05-1A1,1,0,0,1,193,205.21Z"/><path class="cls-6" d="M197.35,205.21a1,1,0,1,1-1-1A1,1,0,0,1,197.35,205.21Z"/><path class="cls-6" d="M182.11,212.46a1,1,0,1,1-1-1A1,1,0,0,1,182.11,212.46Z"/><path class="cls-6" d="M186.5,212.46a1,1,0,1,1-1.05-1A1,1,0,0,1,186.5,212.46Z"/><path class="cls-6" d="M190.88,212.46a1,1,0,1,1-1-1A1,1,0,0,1,190.88,212.46Z"/><path class="cls-6" d="M195.27,212.46a1,1,0,1,1-2.08,0,1,1,0,1,1,2.08,0Z"/><path class="cls-6" d="M199.66,212.46a1,1,0,1,1-2.08,0,1,1,0,1,1,2.08,0Z"/><path class="cls-6" d="M204.05,212.46a1,1,0,1,1-1-1A1,1,0,0,1,204.05,212.46Z"/><path class="cls-6" d="M208.44,212.46a1,1,0,1,1-1.05-1A1,1,0,0,1,208.44,212.46Z"/><path class="cls-6" d="M212.82,212.46a1,1,0,1,1-1-1A1,1,0,0,1,212.82,212.46Z"/><path class="cls-6" d="M42,116.14a1,1,0,0,1-2.08,0,1,1,0,0,1,2.08,0Z"/><path class="cls-6" d="M46.39,116.14a1,1,0,1,1-1-1A1,1,0,0,1,46.39,116.14Z"/><path class="cls-6" d="M50.78,116.14a1,1,0,1,1-1.05-1A1,1,0,0,1,50.78,116.14Z"/><path class="cls-6" d="M55.16,116.14a1,1,0,1,1-1-1A1,1,0,0,1,55.16,116.14Z"/><path class="cls-6" d="M59.55,116.14a1,1,0,1,1-1-1A1,1,0,0,1,59.55,116.14Z"/><path class="cls-6" d="M63.94,116.14a1,1,0,0,1-2.08,0,1,1,0,1,1,2.08,0Z"/><path class="cls-6" d="M68.33,116.14a1,1,0,1,1-1-1A1,1,0,0,1,68.33,116.14Z"/><path class="cls-6" d="M72.72,116.14a1,1,0,1,1-1-1A1,1,0,0,1,72.72,116.14Z"/><path class="cls-6" d="M69.41,150.31a1,1,0,1,1-1-1A1,1,0,0,1,69.41,150.31Z"/><path class="cls-6" d="M73.8,150.31a1,1,0,1,1-1-1A1,1,0,0,1,73.8,150.31Z"/><path class="cls-6" d="M78.19,150.31a1,1,0,1,1-1-1A1,1,0,0,1,78.19,150.31Z"/><path class="cls-6" d="M82.57,150.31a1,1,0,1,1-1-1A1,1,0,0,1,82.57,150.31Z"/><path class="cls-6" d="M87,150.31a1,1,0,1,1-1-1A1,1,0,0,1,87,150.31Z"/><path class="cls-6" d="M91.35,150.31a1,1,0,1,1-1-1A1,1,0,0,1,91.35,150.31Z"/><path class="cls-6" d="M95.74,150.31a1,1,0,1,1-1-1A1,1,0,0,1,95.74,150.31Z"/><path class="cls-6" d="M100.13,150.31a1,1,0,1,1-1-1A1,1,0,0,1,100.13,150.31Z"/><path class="cls-6" d="M204.82,154a1,1,0,1,1-1-1A1,1,0,0,1,204.82,154Z"/><path class="cls-6" d="M209.21,154a1,1,0,1,1-1-1A1,1,0,0,1,209.21,154Z"/><path class="cls-6" d="M213.6,154a1,1,0,1,1-1-1A1,1,0,0,1,213.6,154Z"/><path class="cls-6" d="M218,154a1,1,0,1,1-2.08,0,1,1,0,1,1,2.08,0Z"/><path class="cls-6" d="M222.37,154a1,1,0,1,1-1-1A1,1,0,0,1,222.37,154Z"/><path class="cls-6" d="M226.76,154a1,1,0,1,1-1-1A1,1,0,0,1,226.76,154Z"/><path class="cls-6" d="M231.15,154a1,1,0,1,1-1-1A1,1,0,0,1,231.15,154Z"/><path class="cls-6" d="M235.54,154a1,1,0,1,1-1-1A1,1,0,0,1,235.54,154Z"/><path class="cls-6" d="M226.63,144.1a1,1,0,1,1-1-1A1,1,0,0,1,226.63,144.1Z"/><path class="cls-6" d="M231,144.1a1,1,0,1,1-1-1A1,1,0,0,1,231,144.1Z"/><path class="cls-6" d="M235.41,144.1a1,1,0,1,1-1-1A1,1,0,0,1,235.41,144.1Z"/><path class="cls-6" d="M239.8,144.1a1,1,0,1,1-1-1A1,1,0,0,1,239.8,144.1Z"/><path class="cls-6" d="M244.18,144.1a1,1,0,1,1-1-1A1,1,0,0,1,244.18,144.1Z"/><path class="cls-6" d="M248.57,144.1a1,1,0,1,1-1-1A1,1,0,0,1,248.57,144.1Z"/><path class="cls-6" d="M253,144.1a1,1,0,1,1-1-1A1,1,0,0,1,253,144.1Z"/><path class="cls-6" d="M257.35,144.1a1,1,0,1,1-1-1A1,1,0,0,1,257.35,144.1Z"/><polygon class="cls-6" points="159 42.02 153.18 51.38 159 54.11 164.82 51.38 159 42.02"/><polygon class="cls-6" points="159 62.44 164.82 53.09 159 56.89 153.18 53.09 159 62.44"/><polygon class="cls-6" points="220.1 222.41 214.29 231.77 220.1 234.5 225.92 231.77 220.1 222.41"/><polygon class="cls-6" points="220.1 242.83 225.92 233.47 220.1 237.28 214.29 233.47 220.1 242.83"/><polygon class="cls-6" points="152.05 128.93 148.19 135.14 152.05 136.95 155.91 135.14 152.05 128.93"/><polygon class="cls-6" points="152.05 142.48 155.91 136.27 152.05 138.8 148.19 136.27 152.05 142.48"/><path class="cls-6" d="M220.28,35.16a2.39,2.39,0,0,0-2.73-.47l-2.35-2.35h-8.31a1.82,1.82,0,1,0,0,1.62h7.64l1.88,1.87a2.4,2.4,0,1,0,3.87-.67Zm-.4,3a1.84,1.84,0,0,1-3-1.9A1.86,1.86,0,0,1,218,35.12a1.86,1.86,0,0,1,1.9.44A1.83,1.83,0,0,1,219.88,38.16Z"/><path class="cls-6" d="M214.63,40.4a2.41,2.41,0,0,0-2.73-.47l-2.35-2.34h-8.31a1.82,1.82,0,1,0,0,1.61h7.65l1.87,1.87a2.4,2.4,0,1,0,3.87-.67Zm-.4,3a1.83,1.83,0,0,1-2.6,0,1.81,1.81,0,0,1-.44-1.89,1.84,1.84,0,0,1,.44-.71,1.73,1.73,0,0,1,.7-.44,1.84,1.84,0,0,1,1.9,3Z"/><path class="cls-6" d="M47.85,179a2.39,2.39,0,0,0-2.73-.47l-2.34-2.34H34.47a1.82,1.82,0,1,0,0,1.61h7.64L44,179.7a2.4,2.4,0,1,0,3.87-.67Zm-.4,3a1.83,1.83,0,0,1-3-1.9,1.78,1.78,0,0,1,.43-.7,1.84,1.84,0,0,1,2.6,2.6Z"/><path class="cls-6" d="M42.2,184.27a2.4,2.4,0,0,0-2.73-.47l-2.34-2.34H28.82a1.82,1.82,0,1,0,0,1.61h7.64l1.87,1.87a2.4,2.4,0,1,0,3.87-.67Zm-.4,3a1.83,1.83,0,0,1-3-1.89,1.84,1.84,0,0,1,3-.71A1.83,1.83,0,0,1,41.8,187.27Z"/><polygon class="cls-6" points="174.6 24.87 172 20.38 169.41 24.87 170.79 24.87 170.79 29.11 173.22 29.11 173.22 24.87 174.6 24.87"/><polygon class="cls-6" points="179.06 30.07 176.47 25.57 173.87 30.07 175.25 30.07 175.25 34.3 177.68 34.3 177.68 30.07 179.06 30.07"/><polygon class="cls-6" points="108.18 72.62 111.47 78.32 114.76 72.62 113 72.62 113 67.26 109.94 67.26 109.94 72.62 108.18 72.62"/><polygon class="cls-6" points="102.53 66.05 105.82 71.75 109.11 66.05 107.35 66.05 107.35 60.69 104.28 60.69 104.28 66.05 102.53 66.05"/><polygon class="cls-6" points="245.89 164.03 249.17 169.73 252.46 164.03 250.71 164.03 250.71 158.67 247.64 158.67 247.64 164.03 245.89 164.03"/><polygon class="cls-6" points="240.24 157.46 243.52 163.15 246.81 157.46 245.06 157.46 245.06 152.1 241.99 152.1 241.99 157.46 240.24 157.46"/><polygon class="cls-6" points="66.57 131.64 71.46 128.81 66.57 125.99 66.57 127.5 61.96 127.5 61.96 130.13 66.57 130.13 66.57 131.64"/><polygon class="cls-6" points="60.92 136.49 65.81 133.67 60.92 130.84 60.92 132.35 56.32 132.35 56.32 134.99 60.92 134.99 60.92 136.49"/><path class="cls-6" d="M278.85,117.31a2.84,2.84,0,0,0-5.57-.13l-1.09.13a3.52,3.52,0,0,1-2.89-1l-.77-.78a2.84,2.84,0,1,0-1.31,1.31l.54.54a3.48,3.48,0,0,1,.94,3.19l-.17.83a2.82,2.82,0,0,0-2.43,2.25,2.84,2.84,0,1,0,4.24-1.87,3.51,3.51,0,0,1,3-2.75l.15,0a2.84,2.84,0,0,0,5.35-1.71Z"/><path class="cls-6" d="M183.36,235.82a2.84,2.84,0,0,0-5.57-.13l-1.09.13a3.5,3.5,0,0,1-2.89-1l-.77-.77a2.84,2.84,0,1,0-1.31,1.31l.54.54a3.48,3.48,0,0,1,.94,3.19l-.17.83a2.82,2.82,0,0,0-2.43,2.25,2.84,2.84,0,1,0,4.24-1.87,3.5,3.5,0,0,1,3-2.75l.15,0a2.84,2.84,0,0,0,5.35-1.71Z"/><path class="cls-6" d="M134.21,42.55a2.84,2.84,0,0,0-5.58-.13l-1.08.13a3.48,3.48,0,0,1-2.89-1l-.77-.77a2.84,2.84,0,1,0-1.31,1.31l.53.53a3.51,3.51,0,0,1,1,3.2l-.17.83a2.83,2.83,0,0,0-2.44,2.25,2.88,2.88,0,0,0,2.07,3.31A2.84,2.84,0,0,0,125.7,47a3.5,3.5,0,0,1,3-2.75l.15,0a2.84,2.84,0,0,0,5.36-1.71Z"/><polygon class="cls-6" points="222.74 197.8 220.14 193.3 217.54 197.8 218.93 197.8 218.93 202.03 221.35 202.03 221.35 197.8 222.74 197.8"/><polygon class="cls-6" points="227.2 202.99 224.6 198.5 222.01 202.99 223.39 202.99 223.39 207.22 225.81 207.22 225.81 202.99 227.2 202.99"/><path class="cls-6" d="M236.9,243.66a1,1,0,1,1-1-1A1,1,0,0,1,236.9,243.66Z"/><path class="cls-6" d="M241.28,243.66a1,1,0,1,1-2.08,0,1,1,0,0,1,2.08,0Z"/><path class="cls-6" d="M245.67,243.66a1,1,0,1,1-2.08,0,1,1,0,1,1,2.08,0Z"/><path class="cls-6" d="M250.06,243.66a1,1,0,1,1-1-1A1,1,0,0,1,250.06,243.66Z"/><path class="cls-6" d="M254.45,243.66a1,1,0,1,1-1-1A1,1,0,0,1,254.45,243.66Z"/><path class="cls-6" d="M258.84,243.66a1,1,0,1,1-1-1A1,1,0,0,1,258.84,243.66Z"/><path class="cls-6" d="M263.23,243.66a1,1,0,1,1-1.05-1A1,1,0,0,1,263.23,243.66Z"/><path class="cls-6" d="M267.61,243.66a1,1,0,1,1-2.08,0,1,1,0,0,1,2.08,0Z"/></g><path class="cls-7" d="M87,255.3l22.45-53.61-3.6-1.43L85.4,254.67a.87.87,0,1,0,1.58.63Z"/><path class="cls-8" d="M105.21,201.93l2.28.9-21.1,53.1a1.26,1.26,0,0,0,.59-.63l22.45-53.61-3.6-1.43Z"/><path class="cls-7" d="M122.5,255l1.09-58.1h-3.87l1.09,58.1a.87.87,0,1,0,1.69,0Z"/><path class="cls-8" d="M119.75,198.38h2.88L121.55,256h.1a1,1,0,0,0,.85-1.07l1.09-58.1h-3.87Z"/><path class="cls-7" d="M156.33,255.3l-22.45-53.61,3.59-1.43,20.43,54.41a.87.87,0,1,1-1.57.63Z"/><g class="cls-8"><path d="M157.9,254.67l-20.43-54.41-3.59,1.43.41,1,2.23-.89,20.31,54.1a.79.79,0,0,0,.68.09A1,1,0,0,0,157.9,254.67Z"/></g><path class="cls-9" d="M147.29,201.59c-3.92,3.19-9.73,6.13-24.49,6.42-19.41.38-29.57-1.82-35.08-11.83-9.21-16.72,2.31-70.72,20.49-58.76,15.2,10,18.24,41.93,20.25,46.34S156.8,193.85,147.29,201.59Z"/><path class="cls-10" d="M126.17,203.87c-19.41.39-29.57-1.82-35.09-11.83-6.28-11.41-2.91-40.19,5.65-53.51-11,10.15-16.07,44.84-9,57.65,5.51,10,15.67,12.21,35.08,11.83,14.76-.29,20.57-3.23,24.49-6.42a4.78,4.78,0,0,0,2.05-3.14C145.41,201.24,139.37,203.61,126.17,203.87Z"/><path class="cls-11" d="M150.61,241.4c.25,1.42-2.43,5.16,1.16,8.31s11.76,6.46,6.35,6.58a31.51,31.51,0,0,1-13.35-2.48c-2.75-1.36-.56-3.5-4-4.58-4.5-1.42-4.45-1.7-2.27-6.6C141.52,235.9,149.8,236.83,150.61,241.4Z"/><path class="cls-12" d="M155.81,246.19c.63,1.22,3.64,4,7.8,5.91s13,2.73,8.09,4.37-10.62.64-13.52.18a57.78,57.78,0,0,0-9.11-.55c-4.51,0-4.54-.31-3.93-5.39C146,243.72,153.79,242.24,155.81,246.19Z"/><path class="cls-13" d="M145.22,243.37l1.75,4.28s4.31,1,6.37-.05,1.24-2,1.24-2l-1.81-6.34Z"/><path class="cls-12" d="M125.65,186s18.49,4,25.2,5.66,11.93,4.48,8.79,15.66S151.29,239,151.29,239H139.37l6.26-36.74-34.89-4.11-6.43-14.27Z"/><path class="cls-14" d="M98.41,186c.79,5.76-.9,12.39,8,15s22.92,2.8,22.92,2.8l14,42a21.54,21.54,0,0,0,8.68-.88c2-.61,2.66-3.1,2.66-3.1l-12.67-42.9A9.9,9.9,0,0,0,135,192.1l-21.49-6.53Z"/><path class="cls-15" d="M101.62,166.71a12.1,12.1,0,0,1,.55,7c-1,4.67.15,5,.15,5a59.64,59.64,0,0,0,11.59,5.66c3.77,1.18,7,1,6.9-3.19v0c0-.26,0-.5,0-.73-.17-9.37,1.78-9.84,2.26-20.32.5-10.76-2.38-16.75-5.22-19.36s-6.75-2.69-14.07-1c-5.5,1.3-7.31,2.76-7.27,6.83a32.59,32.59,0,0,0,.6,5A89.87,89.87,0,0,0,101.62,166.71Z"/><path class="cls-16" d="M101.62,166.71a12.1,12.1,0,0,1,.55,7c-1,4.67.15,5,.15,5a59.64,59.64,0,0,0,11.59,5.66l4.92-.46,2-1.55v-1.23c0-.26,0-.5,0-.73a37.26,37.26,0,0,1-7.42-.2,30.62,30.62,0,0,1-7.28-1.82,2.86,2.86,0,0,1-1.8-3.16,41.09,41.09,0,0,0,.69-6.53,35,35,0,0,0-1.75-8.05,16.24,16.24,0,0,1-.66-6,54.63,54.63,0,0,0,0-6.79l-3.9-2.11-2.18.81a32.59,32.59,0,0,0,.6,5A89.87,89.87,0,0,0,101.62,166.71Z"/><path class="cls-17" d="M119.31,121.51a3,3,0,0,1-.25,2.45l-3-4.09,2.11,0Z"/><path class="cls-13" d="M102.92,126.91c.13,5.27,4.68,8.33,4.68,8.33l-.31,4.79,3.07,2,2.1,1.36,1.21-2.52.17-3.09a1.59,1.59,0,0,1,1.26-1.47,5.8,5.8,0,0,0,3-1.81,1.12,1.12,0,0,0,.19-.24h0c2-2.72,2.75-13.11-4.07-16.07C107.17,115.13,102.78,121.64,102.92,126.91Z"/><path class="cls-18" d="M110.57,139.14l-.21,2.88,2.1,1.36,1.21-2.52.17-3.09a1.59,1.59,0,0,1,1.26-1.47,5.8,5.8,0,0,0,3-1.81,1.12,1.12,0,0,0,.19-.24,11,11,0,0,1-4.29,1.33A3.86,3.86,0,0,0,110.57,139.14Z"/><path class="cls-17" d="M110.28,128.54c-.27.11-.53-.31-.53-.31a29.14,29.14,0,0,0-2-3.83c-.91-.92-3.06-.83-3.23,2-.13,2.2,2.47,6.91,3.27,8.29a.5.5,0,0,1-.13.66.52.52,0,0,1-.29.11h0a.49.49,0,0,1-.34-.12c-1.68-1.48-9.1-8.59-3.21-15.28,0,0,4.68.3,5.4,2.55a48.05,48.05,0,0,1,1.22,5.33S110.55,128.42,110.28,128.54Z"/><path class="cls-17" d="M119.31,121.51s-4.09-3.19-10.31.7l-5.1-1.3s-.21-.07-.1-.84.68-8.25,9.6-6.56C118.53,114.48,121.67,118,119.31,121.51Z"/><path class="cls-17" d="M107.33,137.8a4.89,4.89,0,0,0-1.48,1.52,19.65,19.65,0,0,1,1.9,1c.8.49,4.67,3.23,4.67,3.23l1.14-2.34S109.52,138.41,107.33,137.8Z"/><path class="cls-17" d="M113.56,141.2a3.24,3.24,0,0,1,1.77,1.47,4.8,4.8,0,0,0-.19-3.69,6.27,6.27,0,0,0-1.32-.95Z"/><path class="cls-19" d="M102.8,183.27a8.43,8.43,0,0,0,.93,1c.21.12.25-.13.17-.31S102.83,183,102.8,183.27Z"/><path class="cls-17" d="M107.39,135.48h0a.49.49,0,0,1-.34-.12c-1.68-1.48-9.1-8.59-3.21-15.28a6.91,6.91,0,0,0-.17,2.13S99.87,128.28,107.39,135.48Z"/><path class="cls-13" d="M90.9,159.88S87,178,88.82,179.4s22.88,1.59,24.84,1.9,10,1.62,14.07-2c.53-.47-2.49-.27-3.2-1.84s.37-1.4,0-2.06c-1.45-2.55-9.74.55-9.74.55s-13.58-2.35-17.51-1.23c2.36-2.86,2.9-13.52,2.9-13.52Z"/><path class="cls-17" d="M89.83,160.81s2.64-16.62,7.66-18.86,8.57,4.94,6.72,12.31-2.33,10.08-2.33,10.08S94.36,165.1,89.83,160.81Z"/><polygon class="cls-20" points="87.31 264.07 83.73 264.07 86.56 182.01 93.72 182.01 87.31 264.07"/><polygon class="cls-21" points="86.21 192.19 92.92 192.19 93.72 182.01 86.56 182.01 86.21 192.19"/><polygon class="cls-20" points="246.93 264.07 250.51 264.07 247.68 182.01 240.52 182.01 246.93 264.07"/><polygon class="cls-21" points="248.03 192.19 241.31 192.19 240.52 182.01 247.68 182.01 248.03 192.19"/><rect class="cls-22" x="76.51" y="178.88" width="181.22" height="6.75" rx="3.08" ry="3.08"/><path class="cls-23" d="M76.64,183.39a3.06,3.06,0,0,0,2.94,2.24H254.65a3.07,3.07,0,0,0,3-2.24Z"/><path class="cls-24" d="M102.18,177.47h51.72a0,0,0,0,1,0,0v.25a1.17,1.17,0,0,1-1.17,1.17H102.18a0,0,0,0,1,0,0v-1.42A0,0,0,0,1,102.18,177.47Z" transform="translate(256.09 356.35) rotate(180)"/><path class="cls-25" d="M119.78,178.88h35l3.36-21.4a1.64,1.64,0,0,0-1.65-2h-31a2.4,2.4,0,0,0-2.28,2Z"/><path class="cls-26" d="M125.42,155.5h1a2.41,2.41,0,0,0-2.28,2l-3.36,21.4h-1l3.36-21.4A2.4,2.4,0,0,1,125.42,155.5Z"/><path class="cls-26" d="M135.29,167.19a3.19,3.19,0,0,0,3.2,3.84,4.65,4.65,0,0,0,4.41-3.84,3.18,3.18,0,0,0-3.2-3.84A4.65,4.65,0,0,0,135.29,167.19Z"/><path class="cls-27" d="M192.89,96.88a3.49,3.49,0,1,1-3.48-3.49A3.48,3.48,0,0,1,192.89,96.88Z"/><line class="cls-28" x1="99.84" y1="96.88" x2="100.64" y2="96.88"/><line class="cls-29" x1="101.64" y1="96.88" x2="220.28" y2="96.88"/><line class="cls-28" x1="220.78" y1="96.88" x2="221.58" y2="96.88"/><line class="cls-30" x1="189.41" y1="98.03" x2="189.41" y2="145.45"/><rect class="cls-31" x="210.56" y="83.78" width="43.46" height="26.56" rx="1.26" ry="1.26"/><rect class="cls-32" x="210.37" y="101.35" width="10.16" height="2.35" rx="0.83" ry="0.83" transform="translate(112.92 317.98) rotate(-90)"/><rect class="cls-32" x="215.24" y="101.35" width="10.16" height="2.35" rx="0.83" ry="0.83" transform="translate(117.79 322.84) rotate(-90)"/><rect class="cls-32" x="218.09" y="99.35" width="14.17" height="2.35" rx="0.83" ry="0.83" transform="translate(124.66 325.7) rotate(-90)"/><rect class="cls-32" x="222.03" y="98.42" width="16.02" height="2.35" rx="0.83" ry="0.83" transform="translate(130.45 329.64) rotate(-90)"/><rect class="cls-32" x="228.35" y="99.88" width="13.11" height="2.35" rx="0.83" ry="0.83" transform="translate(133.86 335.96) rotate(-90)"/><rect class="cls-32" x="235.47" y="102.13" width="8.6" height="2.35" rx="0.83" ry="0.83" transform="translate(136.46 343.08) rotate(-90)"/><rect class="cls-32" x="238.62" y="99.88" width="13.11" height="2.35" rx="0.83" ry="0.83" transform="translate(144.12 346.22) rotate(-90)"/><rect class="cls-32" x="245.74" y="102.13" width="8.6" height="2.35" rx="0.83" ry="0.83" transform="translate(146.73 353.34) rotate(-90)"/><rect class="cls-33" x="214.27" y="86.8" width="9.29" height="1.14" rx="0.37" ry="0.37"/><rect class="cls-33" x="214.27" y="90.8" width="6.24" height="1.14" rx="0.37" ry="0.37"/><path class="cls-31" d="M164.52,124h48.63a4.37,4.37,0,0,1,4.37,4.37v39.09a.94.94,0,0,1-.94.94H162.52a.94.94,0,0,1-.94-.94V126.91A2.95,2.95,0,0,1,164.52,124Z"/><rect class="cls-34" x="165.64" y="155.64" width="18.65" height="9.26" rx="2.08" ry="2.08"/><g class="cls-35"><path class="cls-33" d="M193.17,131.22h-26.7a.83.83,0,0,1-.83-.83h0a.83.83,0,0,1,.83-.83h26.7a.84.84,0,0,1,.83.83h0A.83.83,0,0,1,193.17,131.22Z"/><path class="cls-33" d="M193.17,134.65h-26.7a.83.83,0,0,1-.83-.83h0a.83.83,0,0,1,.83-.83h26.7a.83.83,0,0,1,.83.83h0A.83.83,0,0,1,193.17,134.65Z"/><path class="cls-33" d="M193.17,138.08h-26.7a.83.83,0,0,1-.83-.83h0a.83.83,0,0,1,.83-.83h26.7a.83.83,0,0,1,.83.83h0A.83.83,0,0,1,193.17,138.08Z"/><path class="cls-33" d="M193.17,141.51h-26.7a.83.83,0,0,1-.83-.83h0a.83.83,0,0,1,.83-.83h26.7a.83.83,0,0,1,.83.83h0A.84.84,0,0,1,193.17,141.51Z"/><path class="cls-33" d="M193.17,144.93h-26.7a.83.83,0,0,1-.83-.83h0a.83.83,0,0,1,.83-.83h26.7a.84.84,0,0,1,.83.83h0A.83.83,0,0,1,193.17,144.93Z"/><path class="cls-33" d="M189,147.82H166.47a.83.83,0,0,1-.83-.83h0a.83.83,0,0,1,.83-.83H189a.83.83,0,0,1,.83.83h0A.83.83,0,0,1,189,147.82Z"/></g><polygon class="cls-36" points="199.2 162.85 199.53 163.53 200.27 163.64 199.73 164.16 199.86 164.9 199.2 164.55 198.53 164.9 198.66 164.16 198.12 163.64 198.86 163.53 199.2 162.85"/><polygon class="cls-36" points="202.49 162.85 202.82 163.53 203.56 163.64 203.03 164.16 203.15 164.9 202.49 164.55 201.82 164.9 201.95 164.16 201.41 163.64 202.16 163.53 202.49 162.85"/><polygon class="cls-36" points="205.78 162.85 206.12 163.53 206.86 163.64 206.32 164.16 206.45 164.9 205.78 164.55 205.12 164.9 205.25 164.16 204.71 163.64 205.45 163.53 205.78 162.85"/><polygon class="cls-36" points="209.08 162.85 209.41 163.53 210.15 163.64 209.61 164.16 209.74 164.9 209.08 164.55 208.41 164.9 208.54 164.16 208 163.64 208.75 163.53 209.08 162.85"/><polygon class="cls-36" points="212.37 162.85 212.7 163.53 213.44 163.64 212.91 164.16 213.03 164.9 212.37 164.55 211.71 164.9 211.83 164.16 211.3 163.64 212.04 163.53 212.37 162.85"/><path class="cls-3" d="M214.29,122.54H164.8a3.23,3.23,0,0,0-3.23,3.22v1.54h56v-1.54A3.22,3.22,0,0,0,214.29,122.54Z"/><circle class="cls-31" cx="208.7" cy="124.92" r="0.52"/><circle class="cls-31" cx="211.27" cy="124.92" r="0.52"/><circle class="cls-31" cx="213.84" cy="124.92" r="0.52"/><rect class="cls-33" x="196.77" y="129.56" width="18.61" height="18.8" rx="0.84" ry="0.84"/><path class="cls-31" d="M205.86,145.48a6.52,6.52,0,1,1,6.51-6.52A6.53,6.53,0,0,1,205.86,145.48Zm0-12.37a5.85,5.85,0,1,0,5.85,5.85A5.86,5.86,0,0,0,205.86,133.11Z"/><path class="cls-31" d="M205.86,145.48c-1.64,0-2.92-2.87-2.92-6.52s1.28-6.51,2.92-6.51,2.91,2.86,2.91,6.51S207.49,145.48,205.86,145.48Zm0-12.37c-1.07,0-2.25,2.4-2.25,5.85s1.18,5.85,2.25,5.85,2.25-2.4,2.25-5.85S206.92,133.11,205.86,133.11Z"/><rect class="cls-31" x="199.68" y="138.63" width="12.36" height="0.66"/><path class="cls-31" d="M205.86,136.54c-3.59,0-4.85-1.26-4.9-1.31l.47-.46-.23.23.23-.23s1.16,1.11,4.43,1.11,4.41-1.1,4.43-1.11l.47.46C210.71,135.28,209.44,136.54,205.86,136.54Z"/><path class="cls-31" d="M201.43,143.16l-.47-.46c0-.06,1.31-1.32,4.9-1.32s4.85,1.26,4.9,1.32l-.48.46s-1.15-1.11-4.42-1.11S201.44,143.15,201.43,143.16Z"/><circle class="cls-31" cx="144.08" cy="97.14" r="22.13" transform="translate(-26.01 61.59) rotate(-22.18)"/><circle class="cls-37" cx="144.08" cy="97.14" r="18.82" transform="translate(25 223.69) rotate(-80.73)"/><path class="cls-3" d="M149.26,96.44a3.83,3.83,0,0,0,2.34-3.81c0-2.56-1.74-4.25-4.52-4.43V85.92h-2.8v2.26H143V85.92h-2.8v2.26h-2.08v3.59h2v10.42h-2v3.59h2.08v2.58H143v-2.58h1.28v2.58h2.8v-2.59c3-.1,5-2,5-4.89C152.05,98.63,151,96.89,149.26,96.44Zm-5.62-4.67h2.73a2,2,0,0,1,.71.13,1.52,1.52,0,0,1,.88,1.53,1.65,1.65,0,0,1-.88,1.62,1.8,1.8,0,0,1-.71.14h-2.73Zm3.44,10.36a3.15,3.15,0,0,1-.71.08l-2.73,0V98.5h2.73a2.65,2.65,0,0,1,.71.09,1.68,1.68,0,0,1,1.31,1.72A1.75,1.75,0,0,1,147.08,102.13Z"/><circle class="cls-31" cx="85.54" cy="94.12" r="17.5" transform="translate(-21.04 163.52) rotate(-80.81)"/><polygon class="cls-31" points="88.72 108.45 95.82 116.14 94.86 105 88.72 108.45"/><path class="cls-33" d="M95.69,96a9.49,9.49,0,0,0,0-3.68H93.17A8.12,8.12,0,0,0,92.23,90L94,88.24a10,10,0,0,0-2.6-2.6l-1.79,1.79a8.06,8.06,0,0,0-2.26-.94V84a11,11,0,0,0-1.83-.17A11.14,11.14,0,0,0,83.7,84v2.53a8.06,8.06,0,0,0-2.26.94l-1.79-1.79a10.36,10.36,0,0,0-2.6,2.6L78.84,90a8.12,8.12,0,0,0-.94,2.25H75.38a10,10,0,0,0,0,3.68H77.9a8.06,8.06,0,0,0,.94,2.26L77.05,100a10.7,10.7,0,0,0,2.6,2.6l1.79-1.79a7.75,7.75,0,0,0,2.26.93v2.53a10.16,10.16,0,0,0,1.84.17,10,10,0,0,0,1.83-.17v-2.53a7.75,7.75,0,0,0,2.26-.93l1.79,1.79A10.36,10.36,0,0,0,94,100l-1.79-1.79A8.06,8.06,0,0,0,93.17,96Zm-10.15.58A2.42,2.42,0,1,1,88,94.12,2.42,2.42,0,0,1,85.54,96.54Z"/></g></g></g></svg>