<?xml version="1.0" encoding="utf-8"?>
<!-- Generator: Adobe Illustrator 24.3.0, SVG Export Plug-In . SVG Version: 6.00 Build 0)  -->
<svg version="1.1" id="Layer_1" xmlns="http://www.w3.org/2000/svg" xmlns:xlink="http://www.w3.org/1999/xlink" x="0px" y="0px"
	 viewBox="0 0 358.5 345.2" style="enable-background:new 0 0 358.5 345.2;" xml:space="preserve">
<style type="text/css">
	.st0{opacity:0.15;}
	.st1{fill:#FFFFFF;}
	.st2{fill:#723E24;}
	.st3{opacity:0.37;enable-background:new    ;}
	.st4{opacity:0.37;}
	.st5{fill:#E8F6F7;}
	.st6{fill:#D0E0E2;}
	.st7{fill:#FFADAD;}
	.st8{fill:#C1C1C1;}
	.st9{fill:#DDDDDD;}
	.st10{fill:#A67070;}
	.st11{opacity:0.38;fill:#916262;enable-background:new    ;}
	.st12{fill:#5B2F2F;}
	.st13{fill:#F29E9E;}
	.st14{fill:#E5BB98;}
	.st15{fill:#E6E7E8;}
	.st16{opacity:0.2;enable-background:new    ;}
	.st17{fill:#FFE7DB;}
	.st18{fill:url(#SVGID_1_);}
	.st19{fill:#9A9FB3;}
	.st20{fill:url(#SVGID_2_);}
	.st21{opacity:0.2;fill:#212226;enable-background:new    ;}
	.st22{fill:#77AFFD;}
	.st23{fill:none;stroke:#77AFFD;stroke-width:0.5;stroke-linecap:round;stroke-linejoin:round;}
	.st24{fill:none;stroke:#77AFFD;stroke-width:0.5;stroke-linecap:round;stroke-linejoin:round;stroke-dasharray:1.59,1;}
	.st25{fill:none;stroke:#77AFFD;stroke-width:0.5;stroke-linecap:round;stroke-linejoin:round;stroke-dasharray:1.6,1;}
	.st26{opacity:0.55;fill:#FF8200;enable-background:new    ;}
	.st27{opacity:0.31;fill:#184C82;enable-background:new    ;}
	.st28{opacity:0.12;fill:#184C82;enable-background:new    ;}
	.st29{opacity:0.55;}
	.st30{fill:#FF8200;}
	.st31{opacity:0.31;fill:#FF8200;enable-background:new    ;}
	.st32{opacity:0.2;fill:none;stroke:#212226;stroke-width:0.5;stroke-miterlimit:10;enable-background:new    ;}
</style>
<g>
	<g id="Layer_2_1_">
		<g id="OBJECTS">
			<g class="st0">
				<path class="st1" d="M281.9,47.5c0,0.8-0.7,1.4-1.5,1.3c-0.8,0-1.4-0.7-1.3-1.5c0-0.7,0.6-1.3,1.4-1.3
					C281.2,46,281.9,46.6,281.9,47.5C281.9,47.4,281.9,47.4,281.9,47.5z"/>
				<path class="st1" d="M288,47.5c0,0.8-0.7,1.4-1.5,1.3c-0.8,0-1.4-0.7-1.3-1.5c0-0.7,0.6-1.3,1.4-1.3C287.3,46,288,46.6,288,47.5
					C288,47.4,288,47.4,288,47.5z"/>
				<path class="st1" d="M294.1,47.5c0,0.8-0.7,1.4-1.5,1.3c-0.8,0-1.4-0.7-1.3-1.5c0-0.7,0.6-1.3,1.4-1.3
					C293.4,46,294.1,46.6,294.1,47.5C294.1,47.4,294.1,47.4,294.1,47.5z"/>
				<path class="st1" d="M300.1,47.5c-0.1,0.8-0.7,1.3-1.5,1.3c-0.8-0.1-1.3-0.7-1.3-1.5c0.1-0.7,0.6-1.2,1.3-1.3
					c0.8-0.1,1.4,0.5,1.5,1.3C300.2,47.3,300.2,47.4,300.1,47.5z"/>
				<circle class="st1" cx="304.8" cy="47.5" r="1.4"/>
				<path class="st1" d="M312.3,47.5c0,0.8-0.7,1.4-1.5,1.3c-0.8,0-1.4-0.7-1.3-1.5c0-0.7,0.6-1.3,1.4-1.3
					C311.7,46,312.4,46.6,312.3,47.5C312.4,47.4,312.4,47.4,312.3,47.5z"/>
				<path class="st1" d="M318.5,47.5c0,0.8-0.7,1.4-1.5,1.3c-0.8,0-1.4-0.7-1.3-1.5c0-0.7,0.6-1.3,1.4-1.3
					C317.8,46,318.5,46.6,318.5,47.5C318.5,47.4,318.5,47.4,318.5,47.5z"/>
				<path class="st1" d="M324.6,47.5c0,0.8-0.7,1.4-1.5,1.3c-0.8,0-1.4-0.7-1.3-1.5c0-0.7,0.6-1.3,1.4-1.3
					C323.9,46,324.6,46.6,324.6,47.5C324.6,47.4,324.6,47.4,324.6,47.5z"/>
				<path class="st1" d="M204.2,77.9c0,0.8-0.7,1.4-1.5,1.3c-0.8,0-1.4-0.7-1.3-1.5c0-0.7,0.6-1.3,1.4-1.3
					C203.5,76.4,204.2,77.1,204.2,77.9C204.2,77.9,204.2,77.9,204.2,77.9z"/>
				<path class="st1" d="M210.2,77.9c0,0.8-0.7,1.4-1.5,1.3c-0.8,0-1.4-0.7-1.3-1.5c0-0.7,0.6-1.3,1.4-1.3
					C209.6,76.4,210.2,77.1,210.2,77.9C210.2,77.9,210.2,77.9,210.2,77.9z"/>
				<path class="st1" d="M216.3,77.9c0,0.8-0.7,1.4-1.5,1.3c-0.8,0-1.4-0.7-1.3-1.5c0-0.7,0.6-1.3,1.4-1.3
					C215.7,76.4,216.3,77.1,216.3,77.9C216.3,77.9,216.3,77.9,216.3,77.9z"/>
				<path class="st1" d="M222.4,77.9c0,0.8-0.7,1.4-1.5,1.3c-0.8,0-1.4-0.7-1.3-1.5c0-0.7,0.6-1.3,1.4-1.3
					C221.8,76.4,222.4,77.1,222.4,77.9C222.4,77.9,222.4,77.9,222.4,77.9z"/>
				<path class="st1" d="M228.5,77.9c0,0.8-0.7,1.4-1.5,1.3c-0.8,0-1.4-0.7-1.3-1.5c0-0.7,0.6-1.3,1.4-1.3
					C227.9,76.4,228.5,77.1,228.5,77.9C228.5,77.9,228.5,77.9,228.5,77.9z"/>
				<path class="st1" d="M234.6,77.9c0,0.8-0.7,1.4-1.5,1.3c-0.8,0-1.4-0.7-1.3-1.5c0-0.7,0.6-1.3,1.4-1.3
					C234,76.4,234.6,77.1,234.6,77.9C234.6,77.9,234.6,77.9,234.6,77.9z"/>
				<path class="st1" d="M240.7,77.9c0,0.8-0.7,1.4-1.5,1.3c-0.8,0-1.4-0.7-1.3-1.5c0-0.7,0.6-1.3,1.4-1.3
					C240.1,76.4,240.7,77.1,240.7,77.9C240.7,77.9,240.7,77.9,240.7,77.9z"/>
				<path class="st1" d="M246.8,77.9c0,0.8-0.7,1.4-1.5,1.3c-0.8,0-1.4-0.7-1.3-1.5c0-0.7,0.6-1.3,1.4-1.3
					C246.2,76.4,246.8,77.1,246.8,77.9C246.8,77.9,246.8,77.9,246.8,77.9z"/>
				<path class="st1" d="M217.9,86.5c0,0.8-0.6,1.4-1.4,1.4s-1.4-0.6-1.4-1.4c0-0.8,0.6-1.4,1.4-1.4S217.9,85.8,217.9,86.5z"/>
				<path class="st1" d="M224,86.5c0,0.8-0.6,1.4-1.4,1.4s-1.4-0.6-1.4-1.4c0-0.8,0.6-1.4,1.4-1.4S224,85.8,224,86.5z"/>
				<path class="st1" d="M230.1,86.5c0,0.8-0.6,1.4-1.4,1.4c-0.8,0-1.4-0.6-1.4-1.4c0-0.7,0.6-1.3,1.3-1.4
					C229.4,85.1,230.1,85.7,230.1,86.5C230.1,86.5,230.1,86.5,230.1,86.5z"/>
				<path class="st1" d="M236.2,86.5c0,0.8-0.6,1.4-1.4,1.4c-0.8,0-1.4-0.6-1.4-1.4c0-0.8,0.6-1.4,1.4-1.4
					C235.6,85.1,236.2,85.7,236.2,86.5z"/>
				<path class="st1" d="M242.3,86.5c0,0.8-0.6,1.4-1.4,1.4s-1.4-0.6-1.4-1.4c0-0.8,0.6-1.4,1.4-1.4S242.3,85.8,242.3,86.5z"/>
				<path class="st1" d="M248.4,86.5c0,0.8-0.6,1.4-1.4,1.4s-1.4-0.6-1.4-1.4c0-0.8,0.6-1.4,1.4-1.4S248.4,85.8,248.4,86.5z"/>
				<path class="st1" d="M254.5,86.5c0,0.8-0.6,1.4-1.4,1.4c-0.8,0-1.4-0.6-1.4-1.4c0-0.8,0.6-1.4,1.4-1.4
					C253.9,85.1,254.5,85.8,254.5,86.5z"/>
				<path class="st1" d="M260.6,86.5c0,0.8-0.6,1.4-1.4,1.4s-1.4-0.6-1.4-1.4c0-0.8,0.6-1.4,1.4-1.4S260.6,85.8,260.6,86.5z"/>
				<path class="st1" d="M199.5,258.8c0,0.8-0.6,1.4-1.4,1.4s-1.4-0.6-1.4-1.4s0.6-1.4,1.4-1.4S199.5,258.1,199.5,258.8z"/>
				<path class="st1" d="M205.5,258.8c0,0.8-0.6,1.4-1.4,1.4c-0.8,0-1.4-0.6-1.4-1.4c0-0.7,0.6-1.3,1.3-1.4
					C204.8,257.4,205.5,258,205.5,258.8C205.5,258.8,205.5,258.8,205.5,258.8z"/>
				<path class="st1" d="M211.7,258.8c0,0.8-0.6,1.4-1.4,1.4c-0.8,0-1.4-0.6-1.4-1.4s0.6-1.4,1.4-1.4
					C211,257.5,211.7,258.1,211.7,258.8z"/>
				<path class="st1" d="M217.8,258.8c0,0.8-0.6,1.4-1.4,1.4s-1.4-0.6-1.4-1.4s0.6-1.4,1.4-1.4S217.8,258.1,217.8,258.8z"/>
				<path class="st1" d="M223.9,258.8c0,0.8-0.6,1.4-1.4,1.4c-0.8,0-1.4-0.6-1.4-1.4s0.6-1.4,1.4-1.4
					C223.2,257.4,223.9,258,223.9,258.8z"/>
				<path class="st1" d="M230,258.8c0,0.8-0.6,1.4-1.4,1.4s-1.4-0.6-1.4-1.4s0.6-1.4,1.4-1.4S230,258.1,230,258.8z"/>
				<path class="st1" d="M236.1,258.8c0,0.8-0.6,1.4-1.4,1.4c-0.8,0-1.4-0.6-1.4-1.4c0-0.7,0.6-1.3,1.3-1.4
					C235.4,257.4,236.1,258,236.1,258.8C236.1,258.8,236.1,258.8,236.1,258.8z"/>
				<path class="st1" d="M242.2,258.8c0,0.8-0.6,1.4-1.4,1.4c-0.8,0-1.4-0.6-1.4-1.4s0.6-1.4,1.4-1.4
					C241.5,257.5,242.2,258.1,242.2,258.8z"/>
				<path class="st1" d="M221,268.9c0,0.8-0.6,1.4-1.4,1.4s-1.4-0.6-1.4-1.4s0.6-1.4,1.4-1.4S221,268.2,221,268.9z"/>
				<path class="st1" d="M227.1,268.9c0,0.8-0.6,1.4-1.4,1.4c-0.8,0-1.4-0.6-1.4-1.4c0-0.7,0.6-1.3,1.3-1.4
					C226.4,267.5,227,268.1,227.1,268.9C227.1,268.9,227.1,268.9,227.1,268.9z"/>
				<path class="st1" d="M233.2,268.9c0,0.8-0.6,1.4-1.4,1.4s-1.4-0.6-1.4-1.4s0.6-1.4,1.4-1.4S233.2,268.2,233.2,268.9z"/>
				<path class="st1" d="M239.3,268.9c0,0.8-0.6,1.4-1.4,1.4c-0.8,0-1.4-0.6-1.4-1.4s0.6-1.4,1.4-1.4
					C238.6,267.5,239.3,268.1,239.3,268.9z"/>
				<path class="st1" d="M245.4,268.9c0,0.8-0.6,1.4-1.4,1.4c-0.8,0-1.4-0.6-1.4-1.4s0.6-1.4,1.4-1.4
					C244.7,267.5,245.4,268.1,245.4,268.9z"/>
				<path class="st1" d="M251.5,268.9c0,0.8-0.6,1.4-1.4,1.4s-1.4-0.6-1.4-1.4s0.6-1.4,1.4-1.4S251.5,268.2,251.5,268.9z"/>
				<path class="st1" d="M257.6,268.9c0,0.8-0.6,1.4-1.4,1.4c-0.8,0-1.4-0.6-1.4-1.4c0-0.7,0.6-1.3,1.3-1.4
					C256.9,267.5,257.5,268.1,257.6,268.9C257.6,268.9,257.6,268.9,257.6,268.9z"/>
				<path class="st1" d="M263.7,268.9c0,0.8-0.6,1.4-1.4,1.4s-1.4-0.6-1.4-1.4s0.6-1.4,1.4-1.4S263.7,268.2,263.7,268.9z"/>
				<path class="st1" d="M26.3,135.1c0,0.8-0.6,1.4-1.4,1.4c-0.8,0-1.4-0.6-1.4-1.4c0-0.8,0.6-1.4,1.4-1.4
					C25.6,133.6,26.3,134.3,26.3,135.1z"/>
				<path class="st1" d="M32.4,135.1c0,0.8-0.6,1.4-1.4,1.4s-1.4-0.6-1.4-1.4s0.6-1.4,1.4-1.4S32.4,134.3,32.4,135.1z"/>
				<path class="st1" d="M38.5,135.1c0,0.8-0.6,1.4-1.4,1.4c-0.8,0-1.4-0.6-1.4-1.4c0-0.7,0.6-1.3,1.3-1.4
					C37.8,133.6,38.4,134.2,38.5,135.1C38.5,135,38.5,135,38.5,135.1z"/>
				<path class="st1" d="M44.6,135.1c0,0.8-0.6,1.4-1.4,1.4s-1.4-0.6-1.4-1.4s0.6-1.4,1.4-1.4S44.6,134.3,44.6,135.1z"/>
				<path class="st1" d="M50.7,135.1c0,0.8-0.6,1.4-1.4,1.4s-1.4-0.6-1.4-1.4s0.6-1.4,1.4-1.4S50.7,134.3,50.7,135.1z"/>
				<path class="st1" d="M56.8,135.1c0,0.8-0.6,1.4-1.4,1.4c-0.8,0-1.4-0.6-1.4-1.4c0-0.8,0.6-1.4,1.4-1.4S56.8,134.3,56.8,135.1z"
					/>
				<path class="st1" d="M62.9,135.1c0,0.8-0.6,1.4-1.4,1.4c-0.8,0-1.4-0.6-1.4-1.4s0.6-1.4,1.4-1.4
					C62.2,133.7,62.9,134.3,62.9,135.1z"/>
				<path class="st1" d="M69,135.1c0,0.8-0.6,1.4-1.4,1.4c-0.8,0-1.4-0.6-1.4-1.4s0.6-1.4,1.4-1.4C68.3,133.7,69,134.3,69,135.1z"/>
				<path class="st1" d="M64.4,182.6c0,0.8-0.6,1.4-1.4,1.4c-0.8,0-1.4-0.6-1.4-1.4c0-0.8,0.6-1.4,1.4-1.4
					C63.7,181.2,64.4,181.8,64.4,182.6z"/>
				<path class="st1" d="M70.5,182.6c0,0.8-0.6,1.4-1.4,1.4c-0.8,0-1.4-0.6-1.4-1.4c0-0.8,0.6-1.4,1.4-1.4
					C69.8,181.2,70.5,181.8,70.5,182.6z"/>
				<path class="st1" d="M76.6,182.6c0,0.8-0.6,1.4-1.4,1.4c-0.8,0-1.4-0.6-1.4-1.4c0-0.8,0.6-1.4,1.4-1.4
					C75.9,181.2,76.6,181.8,76.6,182.6z"/>
				<path class="st1" d="M82.7,182.6c0,0.8-0.6,1.4-1.4,1.4c-0.8,0-1.4-0.6-1.4-1.4c0-0.8,0.6-1.4,1.4-1.4
					C82,181.2,82.7,181.8,82.7,182.6z"/>
				<path class="st1" d="M88.8,182.6c0,0.8-0.6,1.4-1.4,1.4s-1.4-0.6-1.4-1.4c0-0.8,0.6-1.4,1.4-1.4S88.8,181.8,88.8,182.6z"/>
				<path class="st1" d="M94.9,182.6c0,0.8-0.6,1.4-1.4,1.4c-0.8,0-1.4-0.6-1.4-1.4c0-0.8,0.6-1.4,1.4-1.4
					C94.2,181.2,94.9,181.8,94.9,182.6z"/>
				<path class="st1" d="M101,182.6c0,0.8-0.6,1.4-1.4,1.4s-1.4-0.6-1.4-1.4c0-0.8,0.6-1.4,1.4-1.4S101,181.8,101,182.6z"/>
				<path class="st1" d="M107.1,182.6c0,0.8-0.6,1.4-1.4,1.4c-0.8,0-1.4-0.6-1.4-1.4c0-0.8,0.6-1.4,1.4-1.4
					C106.4,181.2,107.1,181.8,107.1,182.6z"/>
				<path class="st1" d="M252.5,187.7c0,0.8-0.6,1.4-1.4,1.4s-1.4-0.6-1.4-1.4s0.6-1.4,1.4-1.4S252.5,186.9,252.5,187.7z"/>
				<path class="st1" d="M258.6,187.7c0,0.8-0.6,1.4-1.4,1.4s-1.4-0.6-1.4-1.4s0.6-1.4,1.4-1.4S258.6,186.9,258.6,187.7z"/>
				<path class="st1" d="M264.7,187.7c0,0.8-0.6,1.4-1.4,1.4s-1.4-0.6-1.4-1.4s0.6-1.4,1.4-1.4S264.7,186.9,264.7,187.7z"/>
				<path class="st1" d="M270.9,187.7c0,0.8-0.6,1.4-1.4,1.4c-0.8,0-1.4-0.6-1.4-1.4c0-0.8,0.6-1.4,1.4-1.4
					C270.2,186.2,270.9,186.9,270.9,187.7z"/>
				<path class="st1" d="M276.9,187.7c0,0.8-0.6,1.4-1.4,1.4s-1.4-0.6-1.4-1.4s0.6-1.4,1.4-1.4S276.9,186.9,276.9,187.7z"/>
				<path class="st1" d="M283,187.7c0,0.8-0.6,1.4-1.4,1.4c-0.8,0-1.4-0.6-1.4-1.4s0.6-1.4,1.4-1.4C282.4,186.3,283,186.9,283,187.7
					z"/>
				<path class="st1" d="M289.1,187.7c0,0.8-0.6,1.4-1.4,1.4c-0.8,0-1.4-0.6-1.4-1.4s0.6-1.4,1.4-1.4
					C288.5,186.3,289.1,186.9,289.1,187.7z"/>
				<path class="st1" d="M295.2,187.7c0,0.8-0.6,1.4-1.4,1.4s-1.4-0.6-1.4-1.4s0.6-1.4,1.4-1.4S295.2,186.9,295.2,187.7z"/>
				<path class="st1" d="M282.8,173.9c0,0.8-0.6,1.4-1.4,1.4s-1.4-0.6-1.4-1.4c0-0.8,0.6-1.4,1.4-1.4S282.8,173.2,282.8,173.9z"/>
				<path class="st1" d="M288.9,173.9c0,0.8-0.6,1.4-1.4,1.4c-0.8,0-1.4-0.6-1.4-1.4c0-0.8,0.6-1.4,1.4-1.4
					C288.3,172.5,288.9,173.2,288.9,173.9z"/>
				<path class="st1" d="M295,173.9c0,0.8-0.6,1.4-1.4,1.4c-0.8,0-1.4-0.6-1.4-1.4c0-0.8,0.6-1.4,1.4-1.4
					C294.4,172.5,295,173.2,295,173.9z"/>
				<path class="st1" d="M301.1,173.9c0,0.8-0.6,1.4-1.4,1.4s-1.4-0.6-1.4-1.4c0-0.8,0.6-1.4,1.4-1.4S301.1,173.2,301.1,173.9z"/>
				<path class="st1" d="M307.2,173.9c0,0.8-0.6,1.4-1.4,1.4s-1.4-0.6-1.4-1.4c0-0.8,0.6-1.4,1.4-1.4S307.2,173.2,307.2,173.9z"/>
				<path class="st1" d="M313.3,173.9c0,0.8-0.6,1.4-1.4,1.4s-1.4-0.6-1.4-1.4c0-0.8,0.6-1.4,1.4-1.4S313.3,173.2,313.3,173.9z"/>
				<path class="st1" d="M319.5,173.9c0,0.8-0.6,1.4-1.4,1.4s-1.4-0.6-1.4-1.4c0-0.8,0.6-1.4,1.4-1.4S319.5,173.2,319.5,173.9z"/>
				<path class="st1" d="M325.5,173.9c0,0.8-0.6,1.4-1.4,1.4c-0.8,0-1.4-0.6-1.4-1.4c0-0.8,0.6-1.4,1.4-1.4
					C324.9,172.5,325.5,173.2,325.5,173.9z"/>
				<polygon class="st1" points="188.9,32.1 180.8,45.1 188.9,48.9 197,45.1 				"/>
				<polygon class="st1" points="188.9,60.4 197,47.5 188.9,52.7 180.8,47.5 				"/>
				<polygon class="st1" points="273.8,282.7 265.7,295.8 273.8,299.5 281.9,295.8 				"/>
				<polygon class="st1" points="273.8,311.1 281.9,298.1 273.8,303.4 265.7,298.1 				"/>
				<polygon class="st1" points="179.2,152.8 173.8,161.5 179.2,164 184.6,161.5 				"/>
				<polygon class="st1" points="179.2,171.7 184.6,163 179.2,166.6 173.8,163 				"/>
				<path class="st1" d="M274,22.5c-1-1-2.5-1.3-3.8-0.7l-3.3-3.3h-11.5c-0.6-1.3-2.1-1.8-3.4-1.1c-1.3,0.6-1.8,2.1-1.1,3.4
					c0.6,1.3,2.1,1.8,3.4,1.1c0.5-0.2,0.9-0.6,1.1-1.1H266l2.6,2.6c-0.8,1.7-0.1,3.7,1.6,4.4c1.7,0.8,3.7,0.1,4.4-1.6
					C275.3,25,275,23.5,274,22.5z M273.5,26.7c-1,1-2.7,0.9-3.6-0.2c-0.6-0.7-0.8-1.6-0.6-2.5c0.3-0.7,0.8-1.3,1.6-1.6
					c0.9-0.3,1.9-0.1,2.6,0.6C274.5,24.1,274.5,25.7,273.5,26.7C273.5,26.7,273.5,26.7,273.5,26.7z"/>
				<path class="st1" d="M266.2,29.8c-1-1-2.5-1.3-3.8-0.7l-3.3-3.3h-11.5c-0.6-1.3-2.1-1.8-3.4-1.1c-1.3,0.6-1.8,2.1-1.1,3.4
					c0.6,1.3,2.1,1.8,3.4,1.1c0.5-0.2,0.9-0.7,1.1-1.1h10.6l2.6,2.6c-0.8,1.7-0.1,3.7,1.6,4.4c1.7,0.8,3.7,0.1,4.4-1.6
					C267.4,32.3,267.2,30.8,266.2,29.8L266.2,29.8z M265.6,34c-1,1-2.6,1-3.6,0c0,0,0,0,0,0c-0.7-0.7-0.9-1.7-0.6-2.6
					c0.1-0.4,0.3-0.7,0.6-1c0.3-0.3,0.6-0.5,1-0.6c1.3-0.4,2.8,0.3,3.2,1.7C266.4,32.3,266.2,33.3,265.6,34L265.6,34z"/>
				<path class="st1" d="M34.4,222.4c-1-1-2.5-1.3-3.8-0.7l-3.3-3.3H15.8c-0.6-1.3-2.1-1.8-3.4-1.1c-1.3,0.6-1.8,2.1-1.1,3.4
					c0.6,1.3,2.1,1.8,3.4,1.1c0.5-0.2,0.9-0.7,1.1-1.1h10.6l2.6,2.6c-0.8,1.7-0.1,3.7,1.6,4.4c1.7,0.8,3.7,0.1,4.4-1.6
					C35.7,225,35.4,223.5,34.4,222.4L34.4,222.4z M33.9,226.6c-1,1-2.6,0.9-3.6-0.1c-0.6-0.7-0.9-1.7-0.6-2.6c0.1-0.4,0.3-0.7,0.6-1
					c1-1,2.7-0.9,3.6,0.1C34.8,224.1,34.8,225.6,33.9,226.6L33.9,226.6z"/>
				<path class="st1" d="M26.6,229.7c-1-1-2.5-1.3-3.8-0.7l-3.3-3.3H8c-0.6-1.3-2.1-1.8-3.4-1.1c-1.3,0.6-1.8,2.1-1.1,3.4
					c0.6,1.3,2.1,1.8,3.4,1.1c0.5-0.2,0.9-0.7,1.1-1.1h10.6l2.6,2.6c-0.8,1.7-0.1,3.7,1.6,4.4c1.7,0.8,3.7,0.1,4.4-1.6
					C27.8,232.3,27.6,230.7,26.6,229.7z M26,233.9c-1,1-2.6,0.9-3.6-0.1c-0.6-0.7-0.9-1.6-0.6-2.5c0.5-1.3,1.9-2,3.3-1.5
					c0.3,0.1,0.6,0.3,0.9,0.6C27,231.3,27,232.9,26,233.9C26,233.9,26,233.9,26,233.9z"/>
				<polygon class="st1" points="210.5,8.2 206.9,2 203.3,8.2 205.3,8.2 205.3,14.1 208.6,14.1 208.6,8.2 				"/>
				<polygon class="st1" points="216.7,15.5 213.1,9.2 209.5,15.5 211.4,15.5 211.4,21.3 214.8,21.3 214.8,15.5 				"/>
				<polygon class="st1" points="118.2,74.6 122.8,82.5 127.4,74.6 124.9,74.6 124.9,67.1 120.7,67.1 120.7,74.6 				"/>
				<polygon class="st1" points="110.4,65.5 115,73.4 119.5,65.5 117.1,65.5 117.1,58 112.8,58 112.8,65.5 				"/>
				<polygon class="st1" points="309.6,201.6 314.2,209.5 318.7,201.6 316.3,201.6 316.3,194.2 312,194.2 312,201.6 				"/>
				<polygon class="st1" points="301.8,192.5 306.3,200.4 310.9,192.5 308.5,192.5 308.5,185 304.2,185 304.2,192.5 				"/>
				<polygon class="st1" points="60.4,156.6 67.2,152.7 60.4,148.8 60.4,150.9 54,150.9 54,154.5 60.4,154.5 				"/>
				<polygon class="st1" points="52.6,163.4 59.4,159.4 52.6,155.5 52.6,157.6 46.2,157.6 46.2,161.3 52.6,161.3 				"/>
				<path class="st1" d="M355.4,136.7c-0.4-2.1-2.4-3.6-4.6-3.2c-1.6,0.3-2.8,1.5-3.2,3l-1.5,0.2c-1.5,0.2-3-0.3-4-1.4l-1.1-1.1
					c1-2,0.1-4.3-1.8-5.3c-2-1-4.3-0.1-5.3,1.8c-1,2-0.1,4.3,1.8,5.3c1.1,0.5,2.4,0.5,3.5,0l0.8,0.8c1.2,1.2,1.7,2.8,1.3,4.4
					l-0.2,1.2c-1.7,0.2-3,1.5-3.4,3.1c-0.4,2.1,0.9,4.2,3.1,4.7c2.1,0.4,4.2-0.9,4.7-3.1c0.3-1.6-0.4-3.3-1.8-4.2
					c0.4-2,2.1-3.6,4.2-3.8h0.2c1,2,3.3,2.8,5.3,1.8C354.8,140.1,355.7,138.4,355.4,136.7L355.4,136.7z"/>
				<path class="st1" d="M222.7,301.4c-0.4-2.1-2.4-3.6-4.6-3.2c-1.6,0.3-2.8,1.5-3.2,3l-1.5,0.2c-1.5,0.2-3-0.3-4-1.4l-1.1-1.1
					c1-2,0.1-4.3-1.8-5.3s-4.3-0.1-5.3,1.8c-1,2-0.1,4.3,1.8,5.3c1.1,0.5,2.4,0.5,3.5,0l0.8,0.8c1.2,1.2,1.7,2.8,1.3,4.4l-0.2,1.2
					c-1.7,0.2-3,1.5-3.4,3.1c-0.4,2.1,0.9,4.2,3.1,4.7s4.2-0.9,4.7-3.1c0.3-1.6-0.4-3.3-1.8-4.2c0.4-2,2.1-3.6,4.2-3.8h0.2
					c1,2,3.3,2.8,5.3,1.8C222.1,304.8,223,303.1,222.7,301.4L222.7,301.4z"/>
				<path class="st1" d="M154.4,32.8c-0.4-2.2-2.4-3.6-4.5-3.3c-1.6,0.3-2.9,1.5-3.2,3.1l-1.5,0.2c-1.5,0.2-3-0.3-4-1.4l-1.1-1.1
					c1-2,0.1-4.3-1.8-5.3c-2-1-4.3-0.1-5.3,1.8c-1,2-0.1,4.3,1.8,5.3c1.1,0.5,2.4,0.5,3.5,0l0.7,0.7c1.2,1.2,1.7,2.8,1.4,4.4
					l-0.2,1.2c-1.7,0.2-3.1,1.5-3.4,3.1c-0.4,2,0.9,4,2.9,4.6c2.1,0.5,4.3-0.7,4.8-2.8c0.4-1.7-0.3-3.5-1.9-4.4
					c0.4-2,2.1-3.6,4.2-3.8h0.2c0.9,2,3.3,2.8,5.3,1.9C153.8,36.3,154.7,34.5,154.4,32.8L154.4,32.8z"/>
				<polygon class="st1" points="277.4,248.5 273.8,242.3 270.2,248.5 272.1,248.5 272.1,254.4 275.5,254.4 275.5,248.5 				"/>
				<polygon class="st1" points="283.6,255.8 280,249.5 276.4,255.8 278.3,255.8 278.3,261.6 281.7,261.6 281.7,255.8 				"/>
				<path class="st1" d="M297.1,312.3c0,0.8-0.6,1.4-1.4,1.4s-1.4-0.6-1.4-1.4s0.6-1.4,1.4-1.4S297.1,311.5,297.1,312.3z"/>
				<path class="st1" d="M303.2,312.3c0,0.8-0.6,1.4-1.4,1.4c-0.8,0-1.4-0.6-1.4-1.4c0-0.8,0.6-1.4,1.4-1.4
					C302.6,310.8,303.2,311.5,303.2,312.3z"/>
				<path class="st1" d="M309.3,312.3c0,0.8-0.6,1.4-1.4,1.4c-0.8,0-1.4-0.6-1.4-1.4c0-0.8,0.6-1.4,1.4-1.4
					C308.7,310.8,309.3,311.5,309.3,312.3z"/>
				<path class="st1" d="M315.4,312.3c0,0.8-0.6,1.4-1.4,1.4s-1.4-0.6-1.4-1.4s0.6-1.4,1.4-1.4S315.4,311.5,315.4,312.3z"/>
				<path class="st1" d="M321.5,312.3c0,0.8-0.6,1.4-1.4,1.4c-0.8,0-1.4-0.6-1.4-1.4s0.6-1.4,1.4-1.4
					C320.9,310.9,321.5,311.5,321.5,312.3z"/>
				<path class="st1" d="M327.6,312.3c0,0.8-0.6,1.4-1.4,1.4c-0.8,0-1.4-0.6-1.4-1.4s0.6-1.4,1.4-1.4
					C327,310.9,327.6,311.5,327.6,312.3z"/>
				<path class="st1" d="M333.7,312.3c0,0.8-0.6,1.4-1.4,1.4c-0.8,0-1.4-0.6-1.4-1.4c0-0.7,0.6-1.3,1.3-1.4
					C333,310.8,333.7,311.4,333.7,312.3C333.7,312.2,333.7,312.3,333.7,312.3z"/>
				<path class="st1" d="M339.8,312.3c0,0.8-0.6,1.4-1.4,1.4c-0.8,0-1.4-0.6-1.4-1.4c0-0.8,0.6-1.4,1.4-1.4
					C339.1,310.8,339.8,311.5,339.8,312.3z"/>
			</g>
			<path class="st2" d="M88.8,328.5L120,254l-5-2l-28.4,75.6c-0.4,0.6-0.2,1.3,0.3,1.7c0.6,0.4,1.3,0.2,1.7-0.3
				C88.7,328.8,88.8,328.6,88.8,328.5L88.8,328.5z"/>
			<path class="st3" d="M114.1,254.3l3.2,1.3L88,329.3c0.4-0.2,0.7-0.5,0.8-0.9L120,254l-5-2L114.1,254.3z"/>
			<path class="st2" d="M138.1,328l1.5-80.7h-5.4l1.5,80.7c-0.2,0.6,0.2,1.3,0.9,1.5c0.6,0.2,1.3-0.2,1.5-0.9
				C138.2,328.4,138.2,328.2,138.1,328z"/>
			<path class="st3" d="M134.3,249.4h4l-1.5,80.1h0.1c0.7-0.1,1.2-0.8,1.2-1.5l1.5-80.7h-5.4L134.3,249.4z"/>
			<path class="st2" d="M185.2,328.5L154,254l5-2l28.4,75.6c0.4,0.5,0.3,1.3-0.3,1.7c-0.5,0.4-1.3,0.3-1.7-0.3
				C185.3,328.8,185.2,328.6,185.2,328.5L185.2,328.5z"/>
			<g class="st4">
				<path d="M187.3,327.6L158.9,252l-5,2l0.6,1.4l3.1-1.2l28.2,75.2c0.3,0.2,0.6,0.2,0.9,0.1C187.4,329,187.7,328.2,187.3,327.6z"/>
			</g>
			<path class="st5" d="M172.6,253.8c-5.4,4.4-13.5,8.5-34,8.9c-27,0.5-41.1-2.5-48.7-16.4C77,223.1,93,148,118.3,164.6
				c21.1,13.9,25.3,58.3,28.1,64.4C149.2,235.2,185.8,243.1,172.6,253.8z"/>
			<path class="st6" d="M143.2,257c-27,0.5-41.1-2.5-48.8-16.4c-8.7-15.9-4-55.8,7.9-74.4C87,180.3,80,228.5,89.8,246.3
				c7.7,13.9,21.8,17,48.7,16.4c20.5-0.4,28.6-4.5,34-8.9c1.5-1,2.5-2.6,2.8-4.4C170,253.3,161.6,256.6,143.2,257z"/>
			<path d="M177.2,309.1c0.3,2-3.4,7.2,1.6,11.5s16.3,9,8.8,9.1c-6.4,0.2-12.7-1-18.6-3.4c-3.8-1.9-0.8-4.9-5.6-6.4
				c-6.3-2-6.2-2.4-3.2-9.2C164.6,301.5,176.1,302.8,177.2,309.1z"/>
			<path d="M184.4,315.8c0.9,1.7,5.1,5.6,10.8,8.2s18.1,3.8,11.2,6.1s-14.8,0.9-18.8,0.3c-4.2-0.6-8.4-0.8-12.7-0.8
				c-6.3,0-6.3-0.4-5.5-7.5C170.8,312.4,181.6,310.3,184.4,315.8z"/>
			<path class="st7" d="M169.7,311.9l2.4,5.9c0,0,6,1.4,8.9-0.1c2.9-1.5,1.7-2.8,1.7-2.8l-2.5-8.8L169.7,311.9z"/>
			<path class="st8" d="M142.5,232.2c0,0,25.7,5.6,35,7.9c9.3,2.3,16.6,6.2,12.2,21.8c-4.4,15.5-11.6,44-11.6,44h-16.6l8.7-51.1
				l-48.5-5.7l-8.9-19.8L142.5,232.2z"/>
			<path class="st9" d="M104.7,232.2c1.1,8-1.3,17.2,11.1,20.8s31.9,3.9,31.9,3.9l19.5,58.4c4.1,0.4,8.2,0,12.1-1.2
				c2.8-0.8,3.7-4.3,3.7-4.3l-17.6-59.6c-1.3-4.7-5-8.3-9.7-9.5l-29.9-9.1L104.7,232.2z"/>
			<path class="st10" d="M109.1,205.3c1.2,3.1,1.5,6.5,0.8,9.7c-1.4,6.5,0.2,6.9,0.2,6.9c5.1,3.2,10.5,5.8,16.1,7.9
				c5.2,1.6,9.7,1.4,9.6-4.4l0,0c0-0.4,0-0.7,0-1c-0.2-13,2.5-13.7,3.1-28.2c0.7-15-3.3-23.3-7.3-26.9c-3.9-3.6-9.4-3.7-19.6-1.4
				c-7.6,1.8-10.2,3.8-10.1,9.5c0.1,2.3,0.4,4.7,0.8,6.9C104.3,191.5,106.4,198.5,109.1,205.3z"/>
			<path class="st11" d="M109.1,205.3c1.2,3.1,1.5,6.5,0.8,9.7c-1.4,6.5,0.2,6.9,0.2,6.9c5.1,3.2,10.5,5.8,16.1,7.9l6.8-0.6l2.8-2.2
				v-1.7c0-0.4,0-0.7,0-1c-3.4,0.3-6.9,0.2-10.3-0.3c-3.5-0.4-6.9-1.3-10.1-2.5c-1.8-0.7-2.8-2.5-2.5-4.4c0.6-3,0.9-6,1-9.1
				c-0.4-3.8-1.2-7.6-2.4-11.2c-0.8-2.7-1.1-5.5-0.9-8.3c0.2-3.1,0.2-6.3,0-9.4l-5.4-2.9l-3,1.1c0.1,2.3,0.4,4.7,0.8,6.9
				C104.3,191.5,106.4,198.5,109.1,205.3z"/>
			<path class="st12" d="M133.7,142.5c0.4,1.1,0.3,2.4-0.3,3.4l-4.2-5.7h2.9L133.7,142.5z"/>
			<path class="st7" d="M110.9,150c0.2,7.3,6.5,11.6,6.5,11.6l-0.4,6.7l4.3,2.8l2.9,1.9l1.7-3.5l0.2-4.3c0.1-1,0.8-1.8,1.8-2
				c1.6-0.4,3.1-1.3,4.2-2.5c0.1-0.1,0.2-0.2,0.3-0.3l0,0c2.8-3.8,3.8-18.2-5.7-22.3C116.8,133.7,110.7,142.7,110.9,150z"/>
			<path class="st13" d="M121.6,167l-0.3,4l2.9,1.9l1.7-3.5l0.2-4.3c0.1-1,0.8-1.8,1.8-2c1.6-0.4,3.1-1.3,4.2-2.5
				c0.1-0.1,0.2-0.2,0.3-0.3c-1.8,1-3.9,1.6-6,1.8C123.8,162.4,121.8,164.4,121.6,167z"/>
			<path class="st12" d="M121.2,152.3c-0.4,0.2-0.7-0.4-0.7-0.4c-0.8-1.8-1.7-3.6-2.8-5.3c-1.3-1.3-4.3-1.2-4.5,2.8
				c-0.2,3.1,3.4,9.6,4.5,11.5c0.2,0.3,0.1,0.7-0.2,0.9c-0.1,0.1-0.3,0.1-0.4,0.2l0,0c-0.2,0-0.3-0.1-0.5-0.2
				c-2.3-2.1-12.6-11.9-4.5-21.2c0,0,6.5,0.4,7.5,3.5c0.7,2.4,1.3,4.9,1.7,7.4C121.4,151.5,121.5,152.1,121.2,152.3z"/>
			<path class="st12" d="M133.7,142.5c0,0-5.7-4.4-14.3,1l-7.1-1.8c0,0-0.3-0.1-0.1-1.2c0.2-1.1,0.9-11.5,13.3-9.1
				C132.6,132.8,137,137.7,133.7,142.5z"/>
			<path class="st12" d="M117.1,165.2c-0.8,0.5-1.5,1.3-2.1,2.1c0.9,0.4,1.8,0.9,2.6,1.4c1.1,0.7,6.5,4.5,6.5,4.5l1.6-3.3
				C125.7,169.9,120.1,166,117.1,165.2z"/>
			<path class="st12" d="M125.7,169.9c1,0.4,1.9,1.1,2.5,2c0.6-1.7,0.5-3.5-0.3-5.1c-0.6-0.5-1.2-1-1.8-1.3L125.7,169.9z"/>
			<path class="st14" d="M110.8,228.4c0.4,0.5,0.8,1,1.3,1.4c0.3,0.2,0.3-0.2,0.2-0.4S110.8,228,110.8,228.4z"/>
			<path class="st12" d="M117.1,161.9L117.1,161.9c-0.2,0-0.3-0.1-0.5-0.2c-2.3-2.1-12.6-11.9-4.5-21.2c-0.2,1-0.3,2-0.2,3
				C112,143.5,106.7,151.9,117.1,161.9z"/>
			<path class="st7" d="M94.2,195.9c0,0-5.4,25.2-2.9,27.1s31.8,2.2,34.5,2.6c2.7,0.4,13.9,2.3,19.6-2.8c0.7-0.7-3.5-0.4-4.4-2.6
				c-1-2.2,0.5-1.9,0-2.9c-2-3.5-13.5,0.8-13.5,0.8s-18.9-3.3-24.3-1.7c3.3-4,4-18.8,4-18.8L94.2,195.9z"/>
			<path class="st12" d="M92.7,197.1c0,0,3.7-23.1,10.6-26.2c7-3.1,11.9,6.9,9.3,17.1s-3.2,14-3.2,14S99,203.1,92.7,197.1z"/>
			<polygon class="st15" points="89.2,340.6 84.3,340.6 88.2,226.6 98.2,226.6 			"/>
			<polygon class="st16" points="87.7,240.8 97,240.8 98.2,226.6 88.2,226.6 			"/>
			<polygon class="st15" points="311.1,340.6 316,340.6 312.1,226.6 302.1,226.6 			"/>
			<polygon class="st16" points="312.6,240.8 303.2,240.8 302.1,226.6 312.1,226.6 			"/>
			<path class="st17" d="M78.5,222.3h243.3c2.4,0,4.3,1.9,4.3,4.3v0.8c0,2.4-1.9,4.3-4.3,4.3H78.5c-2.4,0-4.3-1.9-4.3-4.3v-0.8
				C74.2,224.2,76.2,222.3,78.5,222.3z"/>
			
				<linearGradient id="SVGID_1_" gradientUnits="userSpaceOnUse" x1="200.1854" y1="133.9138" x2="200.1854" y2="100.3264" gradientTransform="matrix(1 0 0 -1 0 348)">
				<stop  offset="0" style="stop-color:#FFE7DB"/>
				<stop  offset="0.24" style="stop-color:#FDE4D8"/>
				<stop  offset="0.41" style="stop-color:#F5DBD0"/>
				<stop  offset="0.56" style="stop-color:#E8CBC2"/>
				<stop  offset="0.69" style="stop-color:#D6B5AE"/>
				<stop  offset="0.82" style="stop-color:#BE9994"/>
				<stop  offset="0.94" style="stop-color:#A27674"/>
				<stop  offset="1" style="stop-color:#916262"/>
			</linearGradient>
			<path class="st18" d="M74.4,228.5c0.5,1.8,2.2,3.1,4.1,3.1h243.3c1.9,0,3.6-1.2,4.2-3.1H74.4z"/>
			<path class="st19" d="M181.8,222.3h-71.9l0,0v-0.3c0-0.9,0.7-1.6,1.6-1.6h70.2l0,0V222.3L181.8,222.3z"/>
			
				<linearGradient id="SVGID_2_" gradientUnits="userSpaceOnUse" x1="-148.7445" y1="142.3705" x2="-148.7445" y2="115.7867" gradientTransform="matrix(-1 0 0.16 -1.01 -10.88 353.68)">
				<stop  offset="0" style="stop-color:#FFFFFF"/>
				<stop  offset="1" style="stop-color:#FFADAD"/>
			</linearGradient>
			<path class="st20" d="M134.4,222.3H183l4.7-29.7c0.3-1.2-0.5-2.4-1.7-2.7c-0.2,0-0.4-0.1-0.6-0.1h-43.1c-1.6,0.1-2.9,1.2-3.2,2.8
				L134.4,222.3z"/>
			<path class="st21" d="M142.2,189.8h1.4c-1.6,0.1-2.9,1.2-3.2,2.8l-4.7,29.7h-1.4l4.7-29.7C139.3,191,140.6,189.8,142.2,189.8z"/>
			<path class="st21" d="M155.9,206c-0.5,2.4,1,4.7,3.4,5.2c0.3,0.1,0.7,0.1,1,0.1c3-0.1,5.6-2.3,6.1-5.3c0.5-2.4-1-4.7-3.4-5.2
				c-0.3-0.1-0.7-0.1-1-0.1C159,200.8,156.4,203,155.9,206z"/>
			<path class="st22" d="M236,108.3c0,2.7-2.2,4.8-4.8,4.8c-2.7,0-4.8-2.2-4.8-4.8c0-2.7,2.2-4.8,4.8-4.8c0,0,0,0,0,0
				C233.8,103.5,236,105.6,236,108.3C236,108.3,236,108.3,236,108.3z"/>
			<line class="st23" x1="106.7" y1="108.3" x2="107.8" y2="108.3"/>
			<line class="st24" x1="109.2" y1="108.3" x2="274" y2="108.3"/>
			<line class="st23" x1="274.7" y1="108.3" x2="275.8" y2="108.3"/>
			<line class="st25" x1="231.1" y1="109.9" x2="231.1" y2="175.8"/>
			<path class="st1" d="M262.3,90.1h56.9c1,0,1.8,0.8,1.8,1.8v33.4c0,1-0.8,1.8-1.8,1.8h-56.9c-1,0-1.8-0.8-1.8-1.8V91.9
				C260.5,90.9,261.3,90.1,262.3,90.1z"/>
			<g>
				<path class="st26" d="M265.7,122.1v-11.8c0-0.6,0.5-1.2,1.2-1.2h1c0.6,0,1.2,0.5,1.2,1.2v11.8c0,0.6-0.5,1.2-1.2,1.2h-1
					C266.2,123.2,265.7,122.7,265.7,122.1z"/>
				<path class="st26" d="M272.4,122.1v-11.8c0-0.6,0.5-1.2,1.2-1.2h1c0.6,0,1.2,0.5,1.2,1.2v11.8c0,0.6-0.5,1.2-1.2,1.2h-1
					C273,123.2,272.4,122.7,272.4,122.1z"/>
				<path class="st26" d="M279.2,122.1v-17.4c0-0.6,0.5-1.2,1.2-1.2h1c0.6,0,1.2,0.5,1.2,1.2v17.4c0,0.6-0.5,1.2-1.2,1.2h-1
					C279.7,123.2,279.2,122.7,279.2,122.1z"/>
				<path class="st26" d="M286,122.1v-20c0-0.6,0.5-1.2,1.2-1.2h1c0.6,0,1.2,0.5,1.2,1.2v20c0,0.6-0.5,1.2-1.2,1.2h-1
					C286.5,123.2,286,122.7,286,122.1z"/>
				<path class="st26" d="M292.7,122.1v-15.9c0-0.6,0.5-1.2,1.2-1.2h1c0.6,0,1.2,0.5,1.2,1.2v15.9c0,0.6-0.5,1.2-1.2,1.2h-1
					C293.2,123.2,292.7,122.7,292.7,122.1z"/>
				<path class="st26" d="M299.5,122.1v-9.6c0-0.6,0.5-1.2,1.2-1.2h1c0.6,0,1.2,0.5,1.2,1.2v9.6c0,0.6-0.5,1.2-1.2,1.2h-1
					C300,123.2,299.5,122.7,299.5,122.1z"/>
				<path class="st26" d="M307,122.1v-15.9c0-0.6,0.5-1.2,1.2-1.2h1c0.6,0,1.2,0.5,1.2,1.2v15.9c0,0.6-0.5,1.2-1.2,1.2h-1
					C307.5,123.2,307,122.7,307,122.1z"/>
				<path class="st26" d="M313.7,122.1v-9.6c0-0.6,0.5-1.2,1.2-1.2h1c0.6,0,1.2,0.5,1.2,1.2v9.6c0,0.6-0.5,1.2-1.2,1.2h-1
					C314.3,123.2,313.7,122.7,313.7,122.1z"/>
			</g>
			<path class="st27" d="M266.2,94.3h11.9c0.3,0,0.5,0.2,0.5,0.5v0.6c0,0.3-0.2,0.5-0.5,0.5h-11.9c-0.3,0-0.5-0.2-0.5-0.5v-0.6
				C265.7,94.5,265.9,94.3,266.2,94.3z"/>
			<path class="st27" d="M266.2,99.9h7.6c0.3,0,0.5,0.2,0.5,0.5v0.6c0,0.3-0.2,0.5-0.5,0.5h-7.6c-0.3,0-0.5-0.2-0.5-0.5v-0.6
				C265.7,100.1,265.9,99.9,266.2,99.9z"/>
			<path class="st1" d="M196.5,146h67.6c3.4,0,6.1,2.7,6.1,6.1v54.3c0,0.7-0.6,1.3-1.3,1.3l0,0h-75.1c-0.7,0-1.3-0.6-1.3-1.3l0,0
				V150C192.5,147.8,194.3,146,196.5,146z"/>
			<path class="st28" d="M201,190h20.1c1.6,0,2.9,1.3,2.9,2.9v7.1c0,1.6-1.3,2.9-2.9,2.9H201c-1.6,0-2.9-1.3-2.9-2.9v-7.1
				C198.1,191.3,199.4,190,201,190z"/>
			<g class="st29">
				<path class="st27" d="M236.4,156h-37.1c-0.6,0-1.2-0.5-1.2-1.2l0,0l0,0c0-0.6,0.5-1.2,1.2-1.2l0,0h37.1c0.6,0,1.1,0.5,1.2,1.2
					l0,0C237.5,155.5,237,156,236.4,156L236.4,156z"/>
				<path class="st27" d="M236.4,160.8h-37.1c-0.6,0-1.2-0.5-1.2-1.2l0,0l0,0c0-0.6,0.5-1.2,1.2-1.2l0,0h37.1c0.6,0,1.2,0.5,1.2,1.2
					l0,0l0,0C237.5,160.3,237,160.8,236.4,160.8L236.4,160.8z"/>
				<path class="st27" d="M236.4,165.6h-37.1c-0.6,0-1.2-0.5-1.2-1.2l0,0l0,0c0-0.6,0.5-1.2,1.2-1.2l0,0h37.1c0.6,0,1.2,0.5,1.2,1.2
					l0,0l0,0C237.5,165,237,165.6,236.4,165.6L236.4,165.6z"/>
				<path class="st27" d="M236.4,170.3h-37.1c-0.6,0-1.2-0.5-1.2-1.2l0,0l0,0c0-0.6,0.5-1.2,1.2-1.2l0,0h37.1c0.6,0,1.2,0.5,1.2,1.2
					l0,0l0,0C237.5,169.8,237,170.3,236.4,170.3z"/>
				<path class="st27" d="M236.4,175.1h-37.1c-0.6,0-1.2-0.5-1.2-1.2l0,0l0,0c0-0.6,0.5-1.2,1.2-1.2l0,0h37.1c0.6,0,1.1,0.5,1.2,1.2
					l0,0C237.5,174.6,237,175.1,236.4,175.1L236.4,175.1z"/>
				<path class="st27" d="M230.6,179.1h-31.3c-0.6,0-1.2-0.5-1.2-1.2l0,0l0,0c0-0.6,0.5-1.2,1.2-1.2l0,0h31.3c0.6,0,1.2,0.5,1.2,1.2
					l0,0l0,0C231.7,178.6,231.2,179.1,230.6,179.1L230.6,179.1z"/>
			</g>
			<polygon class="st30" points="244.7,200 245.2,200.9 246.2,201.1 245.5,201.8 245.6,202.8 244.7,202.3 243.8,202.8 244,201.8 
				243.2,201.1 244.3,200.9 			"/>
			<polygon class="st30" points="249.3,200 249.8,200.9 250.8,201.1 250.1,201.8 250.2,202.8 249.3,202.3 248.4,202.8 248.6,201.8 
				247.8,201.1 248.8,200.9 			"/>
			<polygon class="st30" points="253.9,200 254.3,200.9 255.4,201.1 254.6,201.8 254.8,202.8 253.9,202.3 253,202.8 253.1,201.8 
				252.4,201.1 253.4,200.9 			"/>
			<polygon class="st30" points="258.5,200 258.9,200.9 259.9,201.1 259.2,201.8 259.4,202.8 258.5,202.3 257.5,202.8 257.7,201.8 
				257,201.1 258,200.9 			"/>
			<polygon class="st30" points="263,200 263.5,200.9 264.5,201.1 263.8,201.8 263.9,202.8 263,202.3 262.1,202.8 262.3,201.8 
				261.5,201.1 262.6,200.9 			"/>
			<circle class="st1" cx="257.9" cy="147.3" r="0.7"/>
			<circle class="st1" cx="261.5" cy="147.3" r="0.7"/>
			<circle class="st1" cx="265.1" cy="147.3" r="0.7"/>
			<path class="st31" d="M242.5,153.7H266c0.6,0,1.2,0.5,1.2,1.2v23.8c0,0.6-0.5,1.2-1.2,1.2h-23.5c-0.6,0-1.2-0.5-1.2-1.2v-23.8
				C241.4,154.2,241.9,153.7,242.5,153.7z"/>
			<path class="st1" d="M254,175.8c-5,0-9.1-4-9.1-9s4-9.1,9-9.1c5,0,9.1,4,9.1,9c0,0,0,0,0,0C263,171.8,259,175.8,254,175.8z
				 M254,158.7c-4.5,0-8.1,3.6-8.1,8.1c0,4.5,3.6,8.1,8.1,8.1s8.1-3.6,8.1-8.1C262.1,162.3,258.5,158.7,254,158.7z"/>
			<path class="st1" d="M254,175.8c-2.3,0-4.1-4-4.1-9.1c0-5.1,1.8-9,4.1-9c2.3,0,4,4,4,9C258,171.9,256.3,175.8,254,175.8z
				 M254,158.7c-1.5,0-3.1,3.3-3.1,8.1c0,4.8,1.6,8.1,3.1,8.1c1.5,0,3.1-3.3,3.1-8.1C257.1,162,255.5,158.7,254,158.7z"/>
			<rect x="245.4" y="166.3" class="st1" width="17.2" height="0.9"/>
			<path class="st1" d="M254,163.4c-5,0-6.7-1.8-6.8-1.8l0.7-0.6l-0.3,0.3l0.3-0.3c0,0,1.6,1.5,6.2,1.5s6.1-1.5,6.2-1.5l0.7,0.6
				C260.7,161.7,259,163.4,254,163.4z"/>
			<path class="st1" d="M247.8,172.6l-0.7-0.6c0-0.1,1.8-1.8,6.8-1.8c5,0,6.7,1.8,6.8,1.8l-0.7,0.6c0,0-1.6-1.5-6.1-1.5
				C249.4,171.1,247.8,172.6,247.8,172.6z"/>
			
				<ellipse transform="matrix(0.9745 -0.2243 0.2243 0.9745 -20.0941 40.4843)" class="st1" cx="168.1" cy="108.7" rx="30.8" ry="30.8"/>
			
				<ellipse transform="matrix(0.3171 -0.9484 0.9484 0.3171 11.7597 233.6673)" class="st32" cx="168.1" cy="108.7" rx="26.2" ry="26.2"/>
			<circle class="st1" cx="86.8" cy="104.5" r="24.3"/>
			<polygon class="st1" points="91.2,124.4 101.1,135.1 99.7,119.6 			"/>
			<path class="st31" d="M100.9,107.1c0.3-1.7,0.3-3.4,0-5.1h-3.5c-0.3-1.1-0.7-2.2-1.3-3.2l2.5-2.4c-1-1.4-2.2-2.6-3.6-3.6
				l-2.5,2.5c-1-0.6-2-1-3.1-1.3v-3.5c-0.8-0.1-1.7-0.2-2.5-0.2c-0.8,0-1.7,0.1-2.5,0.2v3.5c-1.1,0.3-2.2,0.7-3.1,1.3l-2.5-2.5
				c-1.4,1-2.6,2.2-3.6,3.6l2.5,2.4c-0.6,1-1,2-1.3,3.1h-3.5c-0.3,1.7-0.3,3.4,0,5.1h3.5c0.3,1.1,0.7,2.2,1.3,3.1l-2.5,2.5
				c1,1.4,2.2,2.6,3.6,3.6l2.5-2.5c1,0.6,2,1,3.1,1.3v3.5c0.8,0.2,1.7,0.2,2.6,0.2c0.9,0,1.7-0.1,2.5-0.2v-3.5
				c1.1-0.3,2.2-0.7,3.1-1.3l2.5,2.5c1.4-1,2.6-2.2,3.6-3.6l-2.5-2.5c0.6-1,1-2,1.3-3.1H100.9z M86.8,107.9c-1.9,0-3.3-1.6-3.3-3.4
				c0-1.9,1.6-3.3,3.4-3.3c1.8,0,3.3,1.5,3.3,3.3C90.2,106.3,88.7,107.8,86.8,107.9C86.8,107.8,86.8,107.8,86.8,107.9L86.8,107.9z"
				/>
			<path class="st30" d="M265.7,144h-68.8c-2.5,0-4.5,2-4.5,4.5v2.1h77.8v-2.1C270.3,146,268.3,144,265.7,144
				C265.8,144,265.7,144,265.7,144z"/>
			<path class="st30" d="M175.3,107.7c2.1-0.9,3.4-3,3.3-5.3c0-3.6-2.4-5.9-6.3-6.2v-3.2h-3.9v3.1h-1.8v-3.1h-3.9v3.1h-2.9v5h2.8
				v14.5h-2.8v5h2.9v3.6h3.9v-3.6h1.8v3.6h3.9v-3.6c4.2-0.1,6.9-2.8,6.9-6.8C179.2,110.7,177.7,108.3,175.3,107.7z M167.5,101.2h3.8
				c0.3,0,0.7,0.1,1,0.2c0.8,0.4,1.3,1.2,1.2,2.1c0.1,0.9-0.4,1.8-1.2,2.3c-0.3,0.1-0.6,0.2-1,0.2h-3.8V101.2z M172.3,115.6
				c-0.3,0.1-0.7,0.1-1,0.1h-3.8v-5.2h3.8c0.3,0,0.7,0,1,0.1c1.1,0.2,1.9,1.3,1.8,2.4C174.2,114.2,173.4,115.3,172.3,115.6z"/>
		</g>
	</g>
</g>
</svg>
