<?xml version="1.0" encoding="utf-8"?>
<!-- Generator: Adobe Illustrator 22.1.0, SVG Export Plug-In . SVG Version: 6.00 Build 0)  -->
<svg version="1.1" id="Layer_1" xmlns="http://www.w3.org/2000/svg" xmlns:xlink="http://www.w3.org/1999/xlink" x="0px" y="0px"
	 viewBox="0 0 2088 279.5" style="enable-background:new 0 0 2088 279.5;" xml:space="preserve">
<style type="text/css">
	.st0{display:none;enable-background:new    ;}
	.st1{display:inline;fill:#1398FA;}
	.st2{display:none;}
	.st3{display:inline;}
	.st4{fill:#1398FA;}
</style>
<g class="st0">
	<path class="st1" d="M-31.4,2047.7l52.8,52.8c4.7,4.3,6.8,10.4,6.8,16.2c0,12.6-10.4,23-23,23c-5.8,0-11.9-2.2-16.2-6.8l-52.8-52.8
		l-52.8,52.8c-4.3,4.7-10.4,6.8-16.2,6.8c-12.6,0-23-10.4-23-23v-207c0-12.6,10.4-23,23-23s23,10.4,23,23v151.7l98.8-98.8
		c4.3-4.3,10.1-6.8,16.2-6.8c12.6,0,23,10.4,23,23c0,6.1-2.5,11.9-6.8,16.2L-31.4,2047.7z"/>
	<path class="st1" d="M74.3,1892.5c14.4,0,25.9,11.5,25.9,25.9s-11.5,25.9-25.9,25.9s-25.9-11.5-25.9-25.9
		C48.4,1904,59.9,1892.5,74.3,1892.5z M97.3,2116.8c0,12.6-10.4,23-23,23s-23-10.4-23-23v-138c0-12.6,10.4-23,23-23s23,10.4,23,23
		V2116.8z"/>
	<path class="st1" d="M241.1,2036.2c0-19-15.5-34.5-34.5-34.5s-34.5,15.5-34.5,34.5v80.5c0,12.6-10.4,23-23,23s-23-10.4-23-23v-80.5
		c0-12.9,2.9-25.2,8.3-35.9c-6.8-4.7-11.1-12.6-11.1-21.6c0-14.4,11.5-25.9,25.9-25.9c9,0,16.9,4.7,21.6,11.5
		c10.8-5.4,23-8.6,35.9-8.6c22.6,0,42.8,9.3,57.5,24.1c14.4-14.7,34.9-24.1,57.5-24.1c44.6,0,80.5,35.9,80.5,80.5v80.5
		c0,12.6-10.4,23-23,23s-23-10.4-23-23v-80.5c0-19-15.5-34.5-34.5-34.5s-34.5,15.5-34.5,34.5v80.5c0,12.6-10.4,23-23,23
		s-23-10.4-23-23L241.1,2036.2L241.1,2036.2z"/>
	<path class="st1" d="M508.5,2139.8c-50.7,0-92-41.3-92-92c0-50.7,41.3-92,92-92s92,41.3,92,92c0,12.6-10.4,23-23,23H468.6
		c7.9,14,22.6,23,39.9,23h23c12.6,0,23,10.4,23,23c0,12.6-10.4,23-23,23H508.5z M468.6,2024.7h79.8c-7.9-13.7-23-23-39.9-23
		C491.2,2001.7,476.5,2011.1,468.6,2024.7z"/>
	<path class="st1" d="M704,1955.7c50.7,0,92,41.3,92,92s-41.3,92-92,92s-92-41.3-92-92C612,1997.1,653.3,1955.7,704,1955.7z
		 M704,2093.8c25.5,0,46-20.5,46-46s-20.5-46-46-46s-46,20.5-46,46S678.5,2093.8,704,2093.8z"/>
</g>
<g class="st2">
	
		<image style="display:inline;overflow:visible;opacity:0.15;" width="587" height="777" xlink:href="67CBB0F25BAF5405.png"  transform="matrix(1 0 0 1 930 1114)">
	</image>
	<g class="st3">
		<path class="st4" d="M1014.7,1383c0.1,0.1,0.1,0.2,0.2,0.3c2.2,2.9,4.5,5.7,6.9,8.4c0,0,0.1,0.1,0.1,0.1c3.6,4.1,7.5,8,11.7,11.6
			c3.7,3.7,8,7.9,12.7,12.6c17.8,17.5,40.7,40.1,52.4,51.1c19.6,18.5,8.1,59.8,6.6,64.7c-4.3,9.9-9.7,15.4-9.7,15.4l-55.1,58.3
			c0,0-50.4,49.1-36.2,115.2c14.2,66.1,55.8,100.8,117.8,109c65,7.5,106.9-40.4,106.9-40.4l194-205.3c0,0,35.2-36.7,33.6-92.7
			c-1.6-56-39.6-88-39.6-88l-204.6-192.7c0,0-1-0.8-2.8-2.2c-11.4-8.7-56.2-39.8-106.1-33.1c-72.7,8.2-114.9,74.7-113.2,133
			C991.3,1342.8,1003.2,1367,1014.7,1383z"/>
	</g>
</g>
<g>
	<path class="st4" d="M109.1,118.9l104.3,146.1H12V14.5h201.5L109.1,118.9z M99.8,128.2l-74.5,74.5v48.9h162.6L99.8,128.2z"/>
	<path class="st4" d="M453.1,14.5v13.3h-74.8v223.8h74.8v13.3H290.8v-13.3h74.5V27.9h-74.5V14.5H453.1z"/>
	<path class="st4" d="M550.2,264.9h-13.3V14.5h14.4l87.4,154.3l87.1-154.3h13.3v250.4h-13.3V41.2L644.8,184h-12.6l-82-144.6V264.9z"
		/>
	<path class="st4" d="M817.9,14.5h176.3v13.3h-163v101.5h141.8v13.3H831.2v109h163v13.3H817.9V14.5z"/>
	<path class="st4" d="M1222.3,23c15.8,9.2,28.4,21.8,37.6,37.6c9.2,15.8,13.9,33.1,13.9,51.8v54.7c0,18.7-4.6,36-13.9,51.8
		c-9.2,15.8-21.8,28.4-37.6,37.6c-15.8,9.2-33.1,13.9-51.8,13.9s-36-4.6-51.8-13.9c-15.8-9.2-28.4-21.8-37.6-37.6
		c-9.2-15.8-13.9-33.1-13.9-51.8v-54.7c0-18.7,4.6-36,13.9-51.8c9.2-15.8,21.8-28.4,37.6-37.6c15.8-9.2,33.1-13.9,51.8-13.9
		S1206.4,13.8,1222.3,23z M1092.6,212.2c8,13.8,18.9,24.7,32.7,32.7c13.8,8,28.8,12.1,45.2,12.1c16.3,0,31.4-4,45.2-12.1
		c13.8-8,24.7-18.9,32.7-32.7c8-13.8,12.1-28.8,12.1-45.2v-54.7c0-16.3-4-31.4-12.1-45.2c-8-13.8-18.9-24.7-32.7-32.7
		c-13.8-8-28.8-12.1-45.2-12.1c-16.3,0-31.4,4-45.2,12.1c-13.8,8-24.7,18.9-32.7,32.7c-8,13.8-12.1,28.8-12.1,45.2v54.7
		C1080.5,183.4,1084.5,198.4,1092.6,212.2z"/>
	<path class="st4" d="M1353.6,264.9V14.5h104.7c17.5,0,32.6,3.2,45.3,9.7c14.6,7.4,26.3,18.1,34.9,31.8c8.6,13.8,13,29,13,45.5
		c0,16.5-4.3,31.8-12.8,45.7c-8.5,13.9-20.1,24.6-34.7,32c-12.5,6.5-27.7,9.7-45.7,9.7h-39.2v75.9H1353.6z"/>
	<path class="st4" d="M1696.1,14.5h14L1813,264.9h-14.4l-33.8-82.7h-123.4l-34.2,82.7h-14L1696.1,14.5z M1646.8,169.2h112.6
		l-56.5-137.4L1646.8,169.2z"/>
	<path class="st4" d="M1862.3,14.5H2076l-100,147.9v102.5h-13.3V162.4L1862.3,14.5z"/>
</g>
</svg>
